<svg width="964" height="965" viewBox="0 0 964 965" fill="none" xmlns="http://www.w3.org/2000/svg">
<g clip-path="url(#clip0_183_571)">
<path d="M183.502 370.498C183.502 317.437 140.474 274.057 87.0478 274.057C44.3784 274.057 9.95605 308.474 9.95605 351.138C9.95605 385.197 37.5656 412.803 71.6294 412.803C98.8804 412.803 121.112 390.575 121.112 363.328C121.112 341.458 103.542 323.891 81.6693 323.891C64.0995 323.891 50.1155 337.873 50.1155 355.44C50.1155 369.423 61.5896 380.537 75.2151 380.537C86.3306 380.537 95.2948 371.574 95.2948 360.46C95.2948 351.497 88.1235 344.326 79.1593 344.326C71.988 344.326 66.2509 350.063 66.2509 357.233" stroke="white" stroke-width="3.22764" stroke-miterlimit="10" stroke-linecap="round"/>
<path d="M122.904 675.598V282.662" stroke="white" stroke-width="3.22764" stroke-miterlimit="10"/>
<path d="M-41.6768 791.4H482.188" stroke="white" stroke-width="3.22764" stroke-miterlimit="10"/>
<path d="M243.383 791.4V309.551" stroke="white" stroke-width="3.22764" stroke-miterlimit="10"/>
<path d="M363.86 791.4V184.786" stroke="white" stroke-width="3.22764" stroke-miterlimit="10"/>
<path d="M62.666 791.4V500.641" stroke="white" stroke-width="3.22764" stroke-miterlimit="10"/>
<path d="M183.144 284.095C183.144 247.168 213.263 217.052 250.195 217.052C279.956 217.052 303.622 241.073 303.622 270.471C303.622 294.134 284.259 313.494 260.594 313.494C241.59 313.494 226.171 298.077 226.171 279.076C226.171 264.018 238.363 251.828 253.423 251.828C265.614 251.828 275.295 261.508 275.295 273.698C275.295 283.378 267.407 291.265 257.725 291.265C249.837 291.265 243.741 284.812 243.741 277.283C243.741 271.188 248.761 266.169 254.857 266.169C259.877 266.169 263.821 270.113 263.821 275.132" stroke="white" stroke-width="3.22764" stroke-miterlimit="10" stroke-linecap="round"/>
<path d="M243.383 728.3C243.383 760.925 269.917 787.097 302.188 787.097C328.363 787.097 349.16 765.945 349.16 740.131C349.16 719.337 332.307 702.487 311.51 702.487C295.016 702.487 281.391 716.111 281.391 732.602C281.391 745.868 292.148 756.623 305.415 756.623C316.172 756.623 324.777 748.019 324.777 737.263C324.777 728.659 317.965 721.847 309.359 721.847C302.546 721.847 297.168 727.225 297.168 734.037C297.168 739.414 301.471 744.075 307.208 744.075C311.51 744.075 315.096 740.49 315.096 736.188" stroke="white" stroke-width="3.22764" stroke-miterlimit="10" stroke-linecap="round"/>
<path d="M2.42578 475.903C2.42578 443.278 28.9597 416.748 61.5892 416.748C87.7645 416.748 108.92 437.9 108.92 464.072C108.92 484.866 92.0673 501.717 71.2705 501.717C54.4179 501.717 41.1509 488.093 41.1509 471.601C41.1509 458.336 51.9079 447.58 65.1749 447.58C75.9319 447.58 84.5374 456.185 84.5374 466.94C84.5374 475.545 77.7247 482.357 69.1191 482.357C62.3063 482.357 56.5693 476.979 56.5693 469.808C56.5693 464.431 60.8721 459.77 66.6091 459.77C70.9119 459.77 74.4976 463.355 74.4976 467.657" stroke="white" stroke-width="3.22764" stroke-miterlimit="10" stroke-linecap="round"/>
<path d="M478.602 88.3443C478.602 141.405 435.574 184.786 382.147 184.786C339.478 184.786 305.056 150.368 305.056 107.704C305.056 73.645 332.665 46.0391 366.729 46.0391C393.98 46.0391 416.211 68.2672 416.211 95.5147C416.211 117.384 398.641 134.952 376.769 134.952C359.199 134.952 345.215 120.97 345.215 103.402C345.215 89.4199 356.689 78.3058 370.315 78.3058C381.43 78.3058 390.394 87.2687 390.394 98.3828C390.394 107.346 383.223 114.516 374.259 114.516C367.088 114.516 361.351 108.78 361.351 101.61" stroke="white" stroke-width="3.22764" stroke-miterlimit="10" stroke-linecap="round"/>
<path d="M183.143 728.3C183.143 760.925 156.609 787.097 124.338 787.097C98.1631 787.097 77.3662 765.945 77.3662 740.131C77.3662 719.337 94.2188 702.487 115.016 702.487C131.51 702.487 145.135 716.111 145.135 732.602C145.135 745.868 134.378 756.623 121.111 756.623C110.354 756.623 101.749 748.019 101.749 737.263C101.749 728.659 108.561 721.847 117.167 721.847C123.98 721.847 129.358 727.225 129.358 734.037C129.358 739.414 125.056 744.075 119.318 744.075C115.016 744.075 111.43 740.49 111.43 736.188" stroke="white" stroke-width="3.22764" stroke-miterlimit="10" stroke-linecap="round"/>
<path d="M303.622 677.39V83.3247" stroke="white" stroke-width="3.22764" stroke-miterlimit="10"/>
<path d="M303.622 677.391C303.622 696.034 288.562 710.733 270.275 710.733C255.574 710.733 243.383 698.902 243.383 683.844C243.383 672.013 253.064 662.333 264.897 662.333C274.219 662.333 282.108 669.862 282.108 679.542C282.108 687.071 276.012 693.165 268.482 693.165" stroke="white" stroke-width="3.22764" stroke-miterlimit="10" stroke-linecap="round"/>
<path d="M303.622 198.051C303.622 216.694 318.682 231.393 336.969 231.393C351.67 231.393 363.861 219.562 363.861 204.504C363.861 192.673 354.18 182.993 342.347 182.993C333.024 182.993 325.136 190.522 325.136 200.202C325.136 207.731 331.232 213.826 338.762 213.826" stroke="white" stroke-width="3.22764" stroke-miterlimit="10" stroke-linecap="round"/>
<path d="M183.144 791.4V212.392" stroke="white" stroke-width="3.22764" stroke-miterlimit="10"/>
<path d="M424.1 791.399V175.105" stroke="white" stroke-width="3.22764" stroke-miterlimit="10"/>
<path d="M2.42578 793.192V274.057" stroke="white" stroke-width="3.22764" stroke-miterlimit="10"/>
<path d="M962 793.192V274.057" stroke="white" stroke-width="3.22764" stroke-miterlimit="10"/>
<path d="M122.904 675.598C122.904 694.241 137.964 708.94 156.251 708.94C170.952 708.94 183.143 697.109 183.143 682.051C183.143 670.22 173.462 660.54 161.629 660.54C152.307 660.54 144.418 668.069 144.418 677.749C144.418 685.278 150.514 691.373 158.044 691.373" stroke="white" stroke-width="3.22764" stroke-miterlimit="10" stroke-linecap="round"/>
<path d="M303.622 182.993C303.622 164.35 288.562 149.651 270.275 149.651C255.574 149.651 243.383 161.482 243.383 176.54C243.383 188.371 253.064 198.051 264.897 198.051C274.219 198.051 282.108 190.522 282.108 180.842C282.108 173.313 276.012 167.218 268.482 167.218" stroke="white" stroke-width="3.22764" stroke-miterlimit="10" stroke-linecap="round"/>
<path d="M303.98 840.517C303.98 893.578 347.008 936.6 400.076 936.6C442.746 936.6 477.168 902.183 477.168 859.519C477.168 825.46 449.558 797.854 415.495 797.854C388.244 797.854 366.371 820.082 366.371 846.971C366.371 868.84 383.941 886.408 405.813 886.408C423.383 886.408 437.367 872.425 437.367 854.858C437.367 840.876 425.893 829.762 412.267 829.762C401.152 829.762 392.188 838.725 392.188 849.839C392.188 858.802 399.359 865.972 408.323 865.972C415.495 865.972 421.232 860.236 421.232 853.065" stroke="white" stroke-width="3.22764" stroke-miterlimit="10" stroke-linecap="round"/>
<path d="M303.98 840.517C303.98 893.578 260.952 936.6 207.885 936.6C165.215 936.6 130.793 902.183 130.793 859.519C130.793 825.46 158.403 797.854 192.466 797.854C219.717 797.854 241.59 820.082 241.59 846.971C241.59 868.84 224.02 886.408 202.148 886.408C184.578 886.408 170.594 872.425 170.594 854.858C170.594 840.876 182.068 829.762 195.693 829.762C206.809 829.762 215.773 838.725 215.773 849.839C215.773 858.802 208.602 865.972 199.638 865.972C192.466 865.972 186.729 860.236 186.729 853.065" stroke="white" stroke-width="3.22764" stroke-miterlimit="10" stroke-linecap="round"/>
<path d="M-28.7686 266.528C-28.7686 266.528 75.5742 306.324 190.315 207.014C305.057 107.704 319.399 3.0166 483.264 3.0166" stroke="white" stroke-width="4.84146" stroke-miterlimit="10"/>
<path d="M478.333 972.089V2.18286" stroke="white" stroke-width="3.22764" stroke-miterlimit="10"/>
<path d="M781.232 370.498C781.232 317.437 824.26 274.057 877.687 274.057C920.356 274.057 954.778 308.474 954.778 351.138C954.778 385.197 927.169 412.803 893.105 412.803C865.854 412.803 843.623 390.575 843.623 363.328C843.623 341.458 861.193 323.891 883.065 323.891C900.635 323.891 914.619 337.873 914.619 355.44C914.619 369.423 903.145 380.537 889.519 380.537C878.404 380.537 869.44 371.574 869.44 360.46C869.44 351.497 876.611 344.326 885.575 344.326C892.746 344.326 898.483 350.063 898.483 357.233" stroke="white" stroke-width="3.22764" stroke-miterlimit="10" stroke-linecap="round"/>
<path d="M841.471 675.598V282.662" stroke="white" stroke-width="3.22764" stroke-miterlimit="10"/>
<path d="M962 791L486 791" stroke="white" stroke-width="3.22764" stroke-miterlimit="10"/>
<path d="M720.993 791.4V309.551" stroke="white" stroke-width="3.22764" stroke-miterlimit="10"/>
<path d="M600.515 791.4V184.786" stroke="white" stroke-width="3.22764" stroke-miterlimit="10"/>
<path d="M901.71 791.4V500.641" stroke="white" stroke-width="3.22764" stroke-miterlimit="10"/>
<path d="M781.232 284.095C781.232 247.168 751.113 217.052 714.18 217.052C684.419 217.052 660.754 241.073 660.754 270.471C660.754 294.134 680.116 313.494 703.782 313.494C722.786 313.494 738.204 298.077 738.204 279.076C738.204 264.018 726.013 251.828 710.953 251.828C698.762 251.828 689.081 261.508 689.081 273.698C689.081 283.378 696.969 291.265 706.65 291.265C714.539 291.265 720.634 284.812 720.634 277.283C720.634 271.188 715.615 266.169 709.519 266.169C704.499 266.169 700.555 270.113 700.555 275.132" stroke="white" stroke-width="3.22764" stroke-miterlimit="10" stroke-linecap="round"/>
<path d="M720.993 728.3C720.993 760.925 694.459 787.097 662.188 787.097C636.013 787.097 615.216 765.945 615.216 740.131C615.216 719.337 632.068 702.487 652.865 702.487C669.359 702.487 682.985 716.111 682.985 732.602C682.985 745.868 672.228 756.623 658.961 756.623C648.204 756.623 639.598 748.019 639.598 737.263C639.598 728.659 646.411 721.847 655.017 721.847C661.829 721.847 667.208 727.225 667.208 734.037C667.208 739.414 662.905 744.075 657.168 744.075C652.865 744.075 649.28 740.49 649.28 736.188" stroke="white" stroke-width="3.22764" stroke-miterlimit="10" stroke-linecap="round"/>
<path d="M962.308 475.903C962.308 443.278 935.774 416.748 903.144 416.748C876.969 416.748 855.813 437.9 855.813 464.072C855.813 484.866 872.666 501.717 893.463 501.717C910.316 501.717 923.583 488.093 923.583 471.601C923.583 458.336 912.826 447.58 899.559 447.58C888.802 447.58 880.196 456.185 880.196 466.94C880.196 475.545 887.009 482.357 895.614 482.357C902.427 482.357 908.164 476.979 908.164 469.808C908.164 464.431 903.861 459.77 898.124 459.77C893.822 459.77 890.236 463.355 890.236 467.657" stroke="white" stroke-width="3.22764" stroke-miterlimit="10" stroke-linecap="round"/>
<path d="M485.773 88.3443C485.773 141.405 528.801 184.786 582.228 184.786C624.897 184.786 659.319 150.368 659.319 107.704C659.319 73.645 631.71 46.0391 597.646 46.0391C570.395 46.0391 548.164 68.2672 548.164 95.5147C548.164 117.384 565.734 134.952 587.606 134.952C605.176 134.952 619.16 120.97 619.16 103.402C619.16 89.4199 607.686 78.3058 594.06 78.3058C582.945 78.3058 573.981 87.2687 573.981 98.3828C573.981 107.346 581.152 114.516 590.116 114.516C597.288 114.516 603.025 108.78 603.025 101.61" stroke="white" stroke-width="3.22764" stroke-miterlimit="10" stroke-linecap="round"/>
<path d="M781.232 728.3C781.232 760.925 807.766 787.097 840.037 787.097C866.213 787.097 887.009 765.945 887.009 740.131C887.009 719.337 870.157 702.487 849.36 702.487C832.866 702.487 819.24 716.111 819.24 732.602C819.24 745.868 829.997 756.623 843.264 756.623C854.021 756.623 862.627 748.019 862.627 737.263C862.627 728.659 855.814 721.847 847.209 721.847C840.396 721.847 835.017 727.225 835.017 734.037C835.017 739.414 839.32 744.075 845.057 744.075C849.36 744.075 852.946 740.49 852.946 736.188" stroke="white" stroke-width="3.22764" stroke-miterlimit="10" stroke-linecap="round"/>
<path d="M660.754 677.39V83.3247" stroke="white" stroke-width="3.22764" stroke-miterlimit="10"/>
<path d="M660.754 841.066V247" stroke="white" stroke-width="3.22764" stroke-miterlimit="10"/>
<path d="M660.754 677.391C660.754 696.034 675.814 710.733 694.101 710.733C708.802 710.733 720.993 698.902 720.993 683.844C720.993 672.013 711.312 662.333 699.479 662.333C690.156 662.333 682.268 669.862 682.268 679.542C682.268 687.071 688.364 693.165 695.893 693.165" stroke="white" stroke-width="3.22764" stroke-miterlimit="10" stroke-linecap="round"/>
<path d="M660.754 198.051C660.754 216.694 645.694 231.393 627.407 231.393C612.706 231.393 600.515 219.562 600.515 204.504C600.515 192.673 610.196 182.993 622.029 182.993C631.351 182.993 639.24 190.522 639.24 200.202C639.24 207.731 633.144 213.826 625.614 213.826" stroke="white" stroke-width="3.22764" stroke-miterlimit="10" stroke-linecap="round"/>
<path d="M781.232 791.4V212.392" stroke="white" stroke-width="3.22764" stroke-miterlimit="10"/>
<path d="M540.275 791.399V175.105" stroke="white" stroke-width="3.22764" stroke-miterlimit="10"/>
<path d="M841.471 675.598C841.471 694.241 826.412 708.94 808.125 708.94C793.424 708.94 781.232 697.109 781.232 682.051C781.232 670.22 790.914 660.54 802.746 660.54C812.069 660.54 819.958 668.069 819.958 677.749C819.958 685.278 813.862 691.373 806.332 691.373" stroke="white" stroke-width="3.22764" stroke-miterlimit="10" stroke-linecap="round"/>
<path d="M660.754 182.993C660.754 164.35 675.814 149.651 694.101 149.651C708.802 149.651 720.993 161.482 720.993 176.54C720.993 188.371 711.312 198.051 699.479 198.051C690.156 198.051 682.268 190.522 682.268 180.842C682.268 173.313 688.364 167.218 695.893 167.218" stroke="white" stroke-width="3.22764" stroke-miterlimit="10" stroke-linecap="round"/>
<path d="M660.754 840.517C660.754 893.578 617.726 936.6 564.658 936.6C521.989 936.6 487.566 902.183 487.566 859.519C487.566 825.46 515.176 797.854 549.24 797.854C576.491 797.854 598.363 820.082 598.363 846.971C598.363 868.84 580.794 886.408 558.921 886.408C541.351 886.408 527.367 872.425 527.367 854.858C527.367 840.876 538.841 829.762 552.467 829.762C563.582 829.762 572.547 838.725 572.547 849.839C572.547 858.802 565.375 865.972 556.411 865.972C549.24 865.972 543.503 860.236 543.503 853.065" stroke="white" stroke-width="3.22764" stroke-miterlimit="10" stroke-linecap="round"/>
<path d="M660.754 840.517C660.754 893.578 703.782 936.6 756.85 936.6C799.519 936.6 833.941 902.183 833.941 859.519C833.941 825.46 806.332 797.854 772.268 797.854C745.017 797.854 723.144 820.082 723.144 846.971C723.144 868.84 740.714 886.408 762.587 886.408C780.156 886.408 794.14 872.425 794.14 854.858C794.14 840.876 782.666 829.762 769.041 829.762C757.925 829.762 748.961 838.725 748.961 849.839C748.961 858.802 756.133 865.972 765.097 865.972C772.268 865.972 778.005 860.236 778.005 853.065" stroke="white" stroke-width="3.22764" stroke-miterlimit="10" stroke-linecap="round"/>
<path d="M993.503 266.528C993.503 266.528 889.16 306.324 774.419 207.014C659.678 107.704 645.335 3.0166 481.471 3.0166" stroke="white" stroke-width="4.84146" stroke-miterlimit="10"/>
<path d="M486.402 972.089V2.18286" stroke="white" stroke-width="3.22764" stroke-miterlimit="10"/>
</g>
<defs>
<clipPath id="clip0_183_571">
<rect width="964" height="965" fill="white"/>
</clipPath>
</defs>
</svg>
