<svg width="387" height="708" viewBox="0 0 387 708" fill="none" xmlns="http://www.w3.org/2000/svg">
<path d="M1.72263 707.034L1.72266 1" stroke="white" stroke-width="3.22764" stroke-miterlimit="10"/>
<path d="M362.648 596.754V206.831" stroke="white" stroke-width="3.22764" stroke-miterlimit="10"/>
<path d="M362.648 707.135V317.213" stroke="white" stroke-width="3.22764" stroke-miterlimit="10"/>
<path d="M226.874 279.269C226.874 239.415 259.192 206.831 299.321 206.831C331.37 206.831 357.224 232.683 357.224 264.727C357.224 290.309 336.487 311.044 310.901 311.044C290.433 311.044 273.735 294.349 273.735 273.883C273.735 257.457 286.932 244.262 303.361 244.262C316.557 244.262 327.061 254.764 327.061 267.959C327.061 278.461 318.442 286.809 308.208 286.809C299.859 286.809 293.126 280.077 293.126 271.729C293.126 264.997 298.513 259.611 305.246 259.611C310.632 259.611 314.941 263.92 314.941 269.305" stroke="white" stroke-width="3.22764" stroke-miterlimit="10" stroke-linecap="round"/>
<path d="M272.119 508.429V213.295" stroke="white" stroke-width="3.22764" stroke-miterlimit="10"/>
<path d="M362.648 595.107L5.125 595.107" stroke="white" stroke-width="3.22764" stroke-miterlimit="10"/>
<path d="M181.628 595.408V233.491" stroke="white" stroke-width="3.22764" stroke-miterlimit="10"/>
<path d="M91.1367 595.408V139.78" stroke="white" stroke-width="3.22764" stroke-miterlimit="10"/>
<path d="M317.364 595.408V377.019" stroke="white" stroke-width="3.22764" stroke-miterlimit="10"/>
<path d="M226.874 214.371C226.874 186.635 204.251 164.015 176.511 164.015C154.158 164.015 136.383 182.057 136.383 204.138C136.383 221.911 150.926 236.453 168.701 236.453C182.975 236.453 194.556 224.873 194.556 210.601C194.556 199.291 185.399 190.136 174.087 190.136C164.931 190.136 157.659 197.406 157.659 206.562C157.659 213.833 163.584 219.757 170.856 219.757C176.781 219.757 181.359 214.91 181.359 209.255C181.359 204.677 177.589 200.907 173.01 200.907C169.24 200.907 166.277 203.869 166.277 207.639" stroke="white" stroke-width="3.22764" stroke-miterlimit="10" stroke-linecap="round"/>
<path d="M181.628 548.014C181.628 572.518 161.698 592.176 137.459 592.176C117.799 592.176 102.179 576.288 102.179 556.9C102.179 541.282 114.837 528.625 130.457 528.625C142.846 528.625 153.08 538.858 153.08 551.245C153.08 561.208 145 569.287 135.036 569.287C126.956 569.287 120.492 562.824 120.492 554.746C120.492 548.283 125.609 543.166 132.073 543.166C137.19 543.166 141.23 547.206 141.23 552.322C141.23 556.361 137.998 559.862 133.689 559.862C130.457 559.862 127.764 557.169 127.764 553.938" stroke="white" stroke-width="3.22764" stroke-miterlimit="10" stroke-linecap="round"/>
<path d="M362.879 358.438C362.879 333.933 342.95 314.006 318.442 314.006C298.781 314.006 282.892 329.894 282.892 349.552C282.892 365.17 295.55 377.827 311.17 377.827C323.828 377.827 333.793 367.594 333.793 355.207C333.793 345.243 325.713 337.165 315.749 337.165C307.669 337.165 301.205 343.628 301.205 351.706C301.205 358.169 306.322 363.285 312.786 363.285C317.903 363.285 322.212 359.246 322.212 353.86C322.212 349.821 318.98 346.32 314.671 346.32C311.439 346.32 308.746 349.013 308.746 352.245" stroke="white" stroke-width="3.22764" stroke-miterlimit="10" stroke-linecap="round"/>
<path d="M4.95508 67.3428C4.95508 107.197 37.2734 139.78 77.4019 139.78C109.451 139.78 135.305 113.929 135.305 81.8841C135.305 56.3022 114.568 35.5674 88.9826 35.5674C68.5143 35.5674 51.8166 52.2629 51.8166 72.7285C51.8166 89.1548 65.0132 102.35 81.4417 102.35C94.6383 102.35 105.142 91.8476 105.142 78.6527C105.142 68.1507 96.5235 59.8029 86.2894 59.8029C77.9405 59.8029 71.2076 66.535 71.2076 74.8828C71.2076 81.6148 76.5939 87.0005 83.3269 87.0005C88.7133 87.0005 93.0224 82.692 93.0224 77.3063" stroke="white" stroke-width="3.22764" stroke-miterlimit="10" stroke-linecap="round"/>
<path d="M226.874 548.014C226.874 572.518 246.804 592.176 271.042 592.176C290.703 592.176 306.323 576.288 306.323 556.9C306.323 541.282 293.665 528.625 278.045 528.625C265.656 528.625 255.422 538.858 255.422 551.245C255.422 561.208 263.501 569.287 273.466 569.287C281.546 569.287 288.009 562.824 288.009 554.746C288.009 548.283 282.892 543.166 276.429 543.166C271.312 543.166 267.272 547.206 267.272 552.322C267.272 556.361 270.504 559.862 274.813 559.862C278.045 559.862 280.738 557.169 280.738 553.938" stroke="white" stroke-width="3.22764" stroke-miterlimit="10" stroke-linecap="round"/>
<path d="M136.383 509.775V63.5727" stroke="white" stroke-width="3.22764" stroke-miterlimit="10"/>
<path d="M136.383 632.712V186.509" stroke="white" stroke-width="3.22764" stroke-miterlimit="10"/>
<path d="M136.383 509.775C136.383 523.778 147.694 534.819 161.429 534.819C172.472 534.819 181.628 525.932 181.628 514.622C181.628 505.736 174.357 498.465 165.469 498.465C158.467 498.465 152.542 504.12 152.542 511.391C152.542 517.046 157.12 521.624 162.776 521.624" stroke="white" stroke-width="3.22764" stroke-miterlimit="10" stroke-linecap="round"/>
<path d="M136.382 149.744C136.382 163.746 125.071 174.787 111.336 174.787C100.294 174.787 91.1367 165.901 91.1367 154.591C91.1367 145.704 98.4083 138.434 107.296 138.434C114.298 138.434 120.223 144.089 120.223 151.359C120.223 157.014 115.645 161.592 109.989 161.592" stroke="white" stroke-width="3.22764" stroke-miterlimit="10" stroke-linecap="round"/>
<path d="M226.874 595.408V160.515" stroke="white" stroke-width="3.22764" stroke-miterlimit="10"/>
<path d="M45.8906 595.407V132.509" stroke="white" stroke-width="3.22764" stroke-miterlimit="10"/>
<path d="M272.12 508.429C272.12 522.432 260.808 533.472 247.073 533.472C236.031 533.472 226.874 524.586 226.874 513.276C226.874 504.39 234.146 497.119 243.033 497.119C250.035 497.119 255.96 502.774 255.96 510.045C255.96 515.7 251.382 520.277 245.726 520.277" stroke="white" stroke-width="3.22764" stroke-miterlimit="10" stroke-linecap="round"/>
<path d="M136.383 138.433C136.383 124.431 147.694 113.39 161.429 113.39C172.472 113.39 181.628 122.276 181.628 133.586C181.628 142.473 174.357 149.743 165.469 149.743C158.467 149.743 152.542 144.088 152.542 136.818C152.542 131.163 157.12 126.585 162.776 126.585" stroke="white" stroke-width="3.22764" stroke-miterlimit="10" stroke-linecap="round"/>
<path d="M136.383 632.3C136.383 672.154 104.065 704.468 64.2053 704.468C32.1564 704.468 6.30176 678.617 6.30176 646.572C6.30176 620.99 27.0393 600.255 52.6246 600.255C73.0928 600.255 89.5213 616.951 89.5213 637.147C89.5213 653.573 76.3247 666.768 59.8962 666.768C46.6996 666.768 36.1962 656.266 36.1962 643.071C36.1962 632.569 44.8144 624.221 55.0485 624.221C63.3974 624.221 70.1303 630.953 70.1303 639.301C70.1303 646.033 64.7439 651.419 58.011 651.419C52.6246 651.419 48.3155 647.11 48.3155 641.725" stroke="white" stroke-width="3.22764" stroke-miterlimit="10" stroke-linecap="round"/>
<path d="M136.383 632.3C136.383 672.154 168.701 704.468 208.56 704.468C240.609 704.468 266.464 678.617 266.464 646.572C266.464 620.99 245.726 600.255 220.141 600.255C199.673 600.255 183.244 616.951 183.244 637.147C183.244 653.573 196.441 666.768 212.869 666.768C226.066 666.768 236.569 656.266 236.569 643.071C236.569 632.569 227.951 624.221 217.717 624.221C209.368 624.221 202.635 630.953 202.635 639.301C202.635 646.033 208.022 651.419 214.755 651.419C220.141 651.419 224.45 647.11 224.45 641.725" stroke="white" stroke-width="3.22764" stroke-miterlimit="10" stroke-linecap="round"/>
<mask id="mask0_515_95" style="mask-type:alpha" maskUnits="userSpaceOnUse" x="1" y="0" width="387" height="210">
<path d="M386.31 201.177C386.31 201.177 307.938 231.067 221.756 156.476C135.574 81.8841 124.801 3.2533 1.72266 3.2533" stroke="white" stroke-width="4.84146" stroke-miterlimit="10"/>
</mask>
<g mask="url(#mask0_515_95)">
<rect x="-11.0459" y="-10.2665" width="374.799" height="296.684" fill="white"/>
</g>
</svg>
