<svg id="Layer_1" data-name="Layer 1" xmlns="http://www.w3.org/2000/svg" viewBox="0 0 1000 1000"><defs><style>.cls-1{fill:#fff;}</style></defs><path class="cls-1" d="M204,519.52c0,20.08-16,32.54-43.32,32.54H98.21v-2.79c15.24,0,17.29-1.86,17.29-11.9V440.32c0-10.6-1.49-11.9-17.29-11.9v-2.79H156.4c29.75,0,44.81,8.55,44.81,30.12,0,19.71-19.89,30.68-44.81,31.42C181.13,487.91,204,493.68,204,519.52Zm-69.16-91.1V485.5h14.31c21.75,0,31-8.93,31-27.89,0-19.15-9.67-29.19-27.89-29.19ZM183,518.22c0-21.75-6-29.94-42.21-29.94h-5.94V531.6c0,11.72,7.06,17.67,21,17.67C173,549.27,183,537.93,183,518.22Z"/><path class="cls-1" d="M223.52,508.18c0-28.26,17.84-46.48,42.94-46.48s43,18.22,43,46.48-17.85,46.48-43,46.48S223.52,536.44,223.52,508.18Zm66.37,4.46c0-27.14-9.67-48.15-24.91-48.15-10.42,0-21.94,9.85-21.94,39.23,0,27,9.67,48.15,24.91,48.15C278.36,551.87,289.89,542,289.89,512.64Z"/><path class="cls-1" d="M399.58,517.66l-1.49,34.4h-71V536.44l62.1-56.89h-46.3c-13.2,0-15.05,2.23-15.8,14.13h-1.86V463.93h69.54v15.62l-62.1,56.89h47c13.57,0,16-1.67,18-18.78Z"/><path class="cls-1" d="M495.51,539c0,8.37,2.23,10.23,12.46,10.23v2.79H467.44v-2.79c9.85,0,11.71-1.68,11.71-10.23V494.61c0-15.44-6.88-21.57-17.47-21.57-8.18,0-14.13,2.6-20.27,9.85V539c0,8.93,2.23,10.23,12.09,10.23v2.79H412.59v-2.79c10.41,0,12.46-1.49,12.46-10.23V440.32c0-11.16-2.23-12.09-12.46-10.79v-1.86l27.71-7.62h1.11v61c4.65-12.08,14.87-19.33,27-19.33,17.66,0,27.14,10.78,27.14,30.49Z"/><path class="cls-1" d="M535.3,496.65a49.33,49.33,0,0,0-.19,5.39c0,23.61,11.53,36.63,29.56,36.63,11.16,0,21.2-5.95,25.29-16.18l1.49.56c-3.72,21.2-13.39,31.61-31.8,31.61-24,0-39.6-17.66-39.6-44.62,0-28.82,14.88-48.34,40-48.34,21.93,0,34,12.64,33.83,34.95Zm.18-2.79h41.28c0-17.29-5.58-29.56-19-29.56C545.71,464.3,537.34,475.08,535.48,493.86Z"/><path class="cls-1" d="M756.17,534.39c.93,11.9,4.46,14.88,17.29,14.88v2.79h-56v-2.79c17.48,0,20.45-2.42,19.33-15.81l-8-94.63-40,113.6H677.71L637,439.39l-8.36,92c-1.49,14.69,2.41,17.66,22.49,17.66v3H607.8v-2.79c12.09,0,16.37-4.28,17.48-17.85L632.9,447c1.68-16.73.19-18.59-14.68-18.59v-2.79H653l38.67,108.76,38.12-108.76h35.14v2.79c-16,0-18,2.23-16.55,18.59Z"/><path class="cls-1" d="M780,508.18c0-28.26,17.85-46.48,42.95-46.48s42.94,18.22,42.94,46.48S848,554.66,822.92,554.66,780,536.44,780,508.18Zm66.37,4.46c0-27.14-9.67-48.15-24.91-48.15-10.41,0-21.94,9.85-21.94,39.23,0,27,9.67,48.15,24.91,48.15C834.81,551.87,846.34,542,846.34,512.64Z"/><path class="cls-1" d="M893.93,585.52c8.74-6.32,13-12.64,21.57-32.91l-33.09-78.27c-2.79-6.51-4.09-7.62-9.3-7.62v-2.79h41.83v2.79c-9.48,0-13.38,1.11-13.38,5.76,0,2.42,1.11,5.58,2.79,10l19.7,48.9,18.41-46.85c1.86-4.84,3-8.37,3-11,0-5.58-4.84-6.88-16.74-6.88v-2.79h32v2.79c-5.58,0-7.81,1.3-13,14.69L918.48,555c-10.23,26-20.45,37-34.21,37"/><path class="cls-1" d="M906.06,577.16c-3,8.14-10.74,14.35-19.59,16.26a35.26,35.26,0,0,1-13.33.48c-1.08-.15-2.16-.36-3.17-.59s-2.06-.45-3.07-.72c-2-.48-4-1.1-6-1.72A186.34,186.34,0,0,1,838,581.44q-5.55-2.62-11-5.45-2.73-1.41-5.41-2.9l-2.67-1.5-1.33-.77-.66-.39-.33-.2-.17-.1-.08,0h0l-.1-.06a98.4,98.4,0,0,0-26.52-11.15,117.51,117.51,0,0,0-28.69-3.7,94.67,94.67,0,0,0-28.61,4,46.47,46.47,0,0,0-12.91,6.19,20.87,20.87,0,0,0-5,4.93,12.08,12.08,0,0,0-2.28,6.38A14.8,14.8,0,0,0,718,588.76a14.25,14.25,0,0,0,6.22,2.84,17,17,0,0,0,6.92-.18,24.27,24.27,0,0,0,6.58-2.42,14.25,14.25,0,0,0,5-4.57,13.06,13.06,0,0,0,2-6.42,18.12,18.12,0,0,0-1-6.76,8.23,8.23,0,0,0-4.56-4.35,29.58,29.58,0,0,0-6.73-2c-4.71-.87-9.56-1.26-14.4-1.69-9.71-.8-19.48-1.6-29.21-2.92-4.85-.65-9.72-1.46-14.52-2.3s-9.63-1.67-14.45-2.62a196.89,196.89,0,0,1-28.6-7.54,121.21,121.21,0,0,1-26.75-13.19c-1.05-.68-2.06-1.4-3.1-2.11s-2-1.5-3-2.27c-2-1.53-3.88-3.11-5.72-4.78A122.52,122.52,0,0,1,582.16,515a129,129,0,0,1-9.23-11.63q-2.16-3-4.11-6.17c-1.32-2.09-2.56-4.23-3.7-6.42-4.65-8.68-7.84-18.39-7.9-28.34a48.68,48.68,0,0,1,2.16-14.63,51,51,0,0,1,6.38-13.28,74,74,0,0,1,21.13-20.25l.55.83A78,78,0,0,0,576,424a61,61,0,0,0-9.34,11.07,46.87,46.87,0,0,0-7.9,27.31c.3,9.63,3.61,18.95,8.35,27.29,1.21,2.08,2.51,4.11,3.88,6.09s2.86,3.88,4.38,5.74A127.62,127.62,0,0,0,585.23,512c1.74,1.66,3.52,3.27,5.32,4.86s3.64,3.14,5.49,4.66,3.73,3,5.63,4.47,3.82,2.8,5.8,4.14A121.47,121.47,0,0,0,633,543a217.66,217.66,0,0,0,27.78,8c4.73,1.07,9.5,2,14.27,3s9.53,1.9,14.32,2.67c9.57,1.59,19.23,2.66,28.94,3.74,4.85.57,9.72,1.12,14.6,2.13a31.28,31.28,0,0,1,7.23,2.29,13,13,0,0,1,3.32,2.22,9,9,0,0,1,2.27,3.43,20.56,20.56,0,0,1,1,7.64,15.1,15.1,0,0,1-2.39,7.37,16,16,0,0,1-5.73,5.14,26.36,26.36,0,0,1-7.12,2.54,19.34,19.34,0,0,1-7.62.12,16.17,16.17,0,0,1-6.94-3.2,16.51,16.51,0,0,1-6.22-13.5,13.75,13.75,0,0,1,2.6-7.2,23.28,23.28,0,0,1,5.36-5.31A48.06,48.06,0,0,1,732,557.6a100,100,0,0,1,29.1-4.3,119.78,119.78,0,0,1,29.26,3.34,100.84,100.84,0,0,1,27.48,10.85l-.1,0,2.72,1.52,2.66,1.42q2.67,1.41,5.38,2.74c3.62,1.76,7.3,3.41,11,4.91q2.81,1.1,5.64,2.12c1.9.66,3.81,1.27,5.72,1.85,3.83,1.17,7.69,2.19,11.56,3,1.94.4,3.88.78,5.81,1.11s3.9.61,5.74.79a34.43,34.43,0,0,0,10.84-.62A33.51,33.51,0,0,0,890,584.7a53.24,53.24,0,0,0,5-2.22c3.36-1.67,6.6-3.75,10.24-6Z"/><path class="cls-1" d="M238.48,524.57a9.17,9.17,0,0,1-2.89-3.26,3.52,3.52,0,0,1-.31-2.57c.44-1.53.87-3.07,1.35-4.6,1-3.05,2-6.08,3.28-9.07s2.59-5.93,4.13-8.81a97.76,97.76,0,0,1,5-8.46,56.57,56.57,0,0,1,6.12-7.85,26.26,26.26,0,0,1,3.83-3.36,13.4,13.4,0,0,1,4.78-2.2,9,9,0,0,1,2.69-.23,11.59,11.59,0,0,1,2.57.48,19.38,19.38,0,0,1,4.56,2.05,30.56,30.56,0,0,1,3.94,2.87c1.23,1,2.42,2.13,3.54,3.26a182.89,182.89,0,0,1,12.27,14.54c2,2.49,3.89,5,5.9,7.36a61.42,61.42,0,0,0,6.35,6.71c2.25,1.93,4.84,3.63,7,2.77,2.46-.76,4.57-2.89,6.22-5.28a36.13,36.13,0,0,0,3.93-8,39.6,39.6,0,0,0,2.1-8.74l2.7.08A30.18,30.18,0,0,1,326,502a32.93,32.93,0,0,1-4.34,8.9,21.29,21.29,0,0,1-3.42,3.83,14.32,14.32,0,0,1-2.19,1.54,11.77,11.77,0,0,1-2.56,1,7.54,7.54,0,0,1-3,.21,8.85,8.85,0,0,1-2.7-.9,18.47,18.47,0,0,1-4.12-3.06,64.48,64.48,0,0,1-6.31-7.32c-1.92-2.53-3.76-5.1-5.62-7.64s-3.72-5.07-5.69-7.52a73.9,73.9,0,0,0-6.22-7,32.85,32.85,0,0,0-7.25-5.64C270,477,267,476,264.39,476.8s-4.71,3.05-6.34,5.5a41.53,41.53,0,0,0-4,8.1c-2.14,5.72-3.58,11.74-5.17,17.7-.78,3-1.59,6-2.42,9l-1.28,4.48a3.43,3.43,0,0,1-1.59,2,9.49,9.49,0,0,1-4.14,1.3Z"/><path class="cls-1" d="M150.82,653.59A113.71,113.71,0,0,0,175.42,642a108.42,108.42,0,0,0,21.12-17,94.33,94.33,0,0,0,15.75-22,97.75,97.75,0,0,0,5.3-12.48,102.75,102.75,0,0,0,3.51-13.12,112.87,112.87,0,0,0,2-27,104.79,104.79,0,0,0-4.6-26.67,71.74,71.74,0,0,0-12.38-23.8,45.08,45.08,0,0,0-9.8-9,35.91,35.91,0,0,0-12.11-5.26A40.56,40.56,0,0,0,171,485a71.26,71.26,0,0,0-13.16,2.8c-8.65,2.62-17,6.26-25.58,9.5s-17.4,6.22-26.75,6.95a44.9,44.9,0,0,1-14-1,41.17,41.17,0,0,1-12.91-5.6c-8-5.11-14-12.61-18.39-20.82a72.56,72.56,0,0,1-7.87-26.63,60.67,60.67,0,0,1,3.38-27.62A57,57,0,0,1,72.07,400a81.6,81.6,0,0,1,24-14,104.82,104.82,0,0,1,27-6.23,102.44,102.44,0,0,1,27.75,1,76.35,76.35,0,0,1,26.19,9.54,80.3,80.3,0,0,1,11.29,8.26,75.5,75.5,0,0,1,9.71,10.11,52,52,0,0,1,7.31,12.12,30.27,30.27,0,0,1,2.51,14.26,22.28,22.28,0,0,1-1.84,7.22,23.32,23.32,0,0,1-4.11,6.2,47.13,47.13,0,0,1-11.38,8.57c-4,2.32-8.23,4.31-12.43,6.19s-8.44,3.62-12.69,5.33Q140,478.79,114,487.72q-13,4.47-26,8.7c-8.68,2.84-17.4,5.57-26,8.53a120.58,120.58,0,0,0-12.46,4.95c-3.86,1.87-7.69,4.36-7.9,7.51a9.42,9.42,0,0,0,1.19,5.25,22.92,22.92,0,0,0,3.61,5,50.11,50.11,0,0,0,10.11,8.23A85.67,85.67,0,0,0,81,546.33a75,75,0,0,0,13.13,2.13c1.1.09,2.21.13,3.31.16.57,0,1.09,0,1.68,0a8.65,8.65,0,0,1,.87.25c.29.08.58.11.86.16a53.34,53.34,0,0,0,6.77.86l.13,1c-2.32.56-4.63.88-6.91,1.23a8,8,0,0,0-.85.16c-.29.08-.57.2-.85.25a16.53,16.53,0,0,1-1.74,0c-1.18,0-2.35,0-3.52-.1a79.12,79.12,0,0,1-13.89-2,85.38,85.38,0,0,1-25.88-10.67,54.67,54.67,0,0,1-11.07-9,27.72,27.72,0,0,1-4.34-6.06,14,14,0,0,1-1.68-7.92,10,10,0,0,1,1.48-4.17,13.66,13.66,0,0,1,2.74-3.08,30.6,30.6,0,0,1,6.31-3.88,125.59,125.59,0,0,1,13-5.1c8.7-3,17.41-5.66,26.09-8.46s17.34-5.62,26-8.56q25.86-8.83,51.31-18.8c4.22-1.68,8.43-3.39,12.57-5.22s8.22-3.75,12.1-5.95a43.38,43.38,0,0,0,10.45-7.76,18.29,18.29,0,0,0,5-11.11,26.33,26.33,0,0,0-2.17-12.44,48,48,0,0,0-6.74-11.27,76.13,76.13,0,0,0-19.93-17.57,72.69,72.69,0,0,0-24.93-9.19,99.4,99.4,0,0,0-26.8-1.11,100.93,100.93,0,0,0-26.19,5.92,78.14,78.14,0,0,0-23.14,13.28,53.85,53.85,0,0,0-15.58,21.24,57.61,57.61,0,0,0-3.3,26.23,70,70,0,0,0,7.44,25.59c4.14,7.88,9.92,15,17.36,19.85a38.69,38.69,0,0,0,12.06,5.3,42.3,42.3,0,0,0,13.19,1c8.9-.65,17.58-3.51,26.07-6.68s16.93-6.81,25.77-9.45a74.34,74.34,0,0,1,13.6-2.83,42.91,42.91,0,0,1,14,.74A38.15,38.15,0,0,1,197.55,489a47.33,47.33,0,0,1,10.22,9.5,73.43,73.43,0,0,1,12.6,24.55,106.76,106.76,0,0,1,4.53,27.17,114.25,114.25,0,0,1-2.2,27.43A103.65,103.65,0,0,1,219.06,591a98.4,98.4,0,0,1-5.46,12.66,96.09,96.09,0,0,1-16.11,22.27A109.4,109.4,0,0,1,176,643a115.1,115.1,0,0,1-24.89,11.54Z"/><path class="cls-1" d="M326.31,513.35q7.24-10.34,13.86-21.08a234.16,234.16,0,0,0,12.18-22c1.81-3.78,3.48-7.63,4.91-11.55a64.43,64.43,0,0,0,3.26-12,30,30,0,0,0,.36-6.12,16.73,16.73,0,0,0-1.24-5.82,11.37,11.37,0,0,0-3.47-4.56,14.94,14.94,0,0,0-5.31-2.45c-3.93-1-8.2-1.52-12.35-2.76a41,41,0,0,1-11.78-5.49,51.49,51.49,0,0,1-9.67-8.67,61.85,61.85,0,0,1-7.53-10.55,54.58,54.58,0,0,1-5.08-12.08,32.59,32.59,0,0,1-1-13.5,21.75,21.75,0,0,1,2.25-6.75,26.84,26.84,0,0,1,4-5.74,44.28,44.28,0,0,1,10.66-8.34A88.24,88.24,0,0,1,345,344.71a137.67,137.67,0,0,1,25.77-3.11,168.66,168.66,0,0,1,51.2,6.5,151.77,151.77,0,0,1,24.15,9.31,192,192,0,0,1,22.37,12.72,149.37,149.37,0,0,1,20.26,16,98.36,98.36,0,0,1,16.47,20,64.35,64.35,0,0,1,8.95,24.46,58.72,58.72,0,0,1-2.3,25.88,71,71,0,0,1-12.39,22.63,95.6,95.6,0,0,1-18.65,17.58,115.85,115.85,0,0,1-46.62,19.92A98.53,98.53,0,0,1,408.77,518a100.54,100.54,0,0,1-24.86-5.33,120.75,120.75,0,0,1-43-26.42c-6.09-5.87-11.68-12.37-15.71-19.9a36.93,36.93,0,0,1-2.5-5.89,18.34,18.34,0,0,1-1-6.39,8.84,8.84,0,0,1,2.56-6,14.78,14.78,0,0,1,5.79-2.93c4.08-1.22,8.21-2,12.34-2.89l12.39-2.49c8.25-1.66,16.49-3.36,24.71-5.15l24.65-5.42,6.16-1.37c2-.47,4.15-.91,6.22-1.26,4.17-.71,8.38-1.16,12.54-1.54l.23,1a118.45,118.45,0,0,1-12.3,3c-4.08.83-8.19,1.79-12.31,2.66q-12.36,2.67-24.78,5t-24.86,4.51c-4.15.73-8.3,1.42-12.43,2.2a125.09,125.09,0,0,0-12.26,2.75,13.93,13.93,0,0,0-5.4,2.69,7.6,7.6,0,0,0-2.22,5.33,17.06,17.06,0,0,0,1,6,34.52,34.52,0,0,0,2.48,5.69c4,7.32,9.57,13.71,15.63,19.45a119,119,0,0,0,42.65,25.71,98.76,98.76,0,0,0,24.43,5,91.19,91.19,0,0,0,12.48,0,97.49,97.49,0,0,0,12.37-1.67A113.25,113.25,0,0,0,479,494.13a92.2,92.2,0,0,0,17.71-17.25,67.28,67.28,0,0,0,11.39-21.61,53.42,53.42,0,0,0,1.7-24,57.73,57.73,0,0,0-8.89-22.4,88.81,88.81,0,0,0-16.18-18.31A143.3,143.3,0,0,0,464.74,376a190.37,190.37,0,0,0-21.94-11.44c-3.78-1.68-7.58-3.24-11.42-4.61s-7.78-2.57-11.73-3.65A176.88,176.88,0,0,0,371,350.36a155.14,155.14,0,0,0-24.39,2.26,98.33,98.33,0,0,0-11.84,2.76,68.5,68.5,0,0,0-11.21,4.3,38.22,38.22,0,0,0-9.62,6.53,18.84,18.84,0,0,0-5.57,9.39,26.79,26.79,0,0,0,.26,11.53,45.88,45.88,0,0,0,4.17,11.35,52.92,52.92,0,0,0,15.61,18.6,38.56,38.56,0,0,0,10.88,5.4c3.9,1.28,8,1.85,12.23,3a17.15,17.15,0,0,1,6,3,13.28,13.28,0,0,1,4,5.48,18.5,18.5,0,0,1,1.24,6.49,35.64,35.64,0,0,1-.5,6.46,66.05,66.05,0,0,1-3.52,12.27c-1.51,4-3.26,7.82-5.14,11.6-7.6,15.1-16.84,29.24-26.38,43.12Z"/><path class="cls-1" d="M598.33,376.27a114.61,114.61,0,0,1,31.54-7.94c2.71-.24,5.43-.4,8.16-.38a74.23,74.23,0,0,1,8.16.44,57.92,57.92,0,0,1,15.9,3.84,36.73,36.73,0,0,1,13.55,9.28,29,29,0,0,1,4.57,6.93,35,35,0,0,1,2.7,7.86,27.18,27.18,0,0,1,.5,8.35,23.48,23.48,0,0,1-2.35,8.11,21.71,21.71,0,0,1-5.34,6.59,32.47,32.47,0,0,1-7.13,4.45,58.57,58.57,0,0,1-7.75,2.92c-2.63.81-5.27,1.51-7.91,2.16-5.27,1.34-10.54,2.53-15.63,4.13a49.79,49.79,0,0,0-14.16,6.55,27.47,27.47,0,0,0-5.45,5.2,17,17,0,0,0-3.29,6.65,19.82,19.82,0,0,0-.24,7.44c.28,1.25.46,2.44.85,3.63.19.59.33,1.17.53,1.75l.64,1.71c.88,2.25,1.76,4.41,2.66,6.52s1.7,4.2,2.62,6.24a35.51,35.51,0,0,0,3.33,5.66,20.54,20.54,0,0,0,2,2.38c.35.36.67.75,1,1.1s.78.62,1.15,1c3,2.59,7.14,4.35,11.81,5.59a94.65,94.65,0,0,0,15,2.54c5.23.55,10.57.89,16,1.13s10.79.42,16.21.53,10.84.16,16.24.09,10.8-.31,16.19-.69c2.7-.18,5.4-.41,8.09-.65l8.1-.73a145.47,145.47,0,0,1,16.31-.7,126.14,126.14,0,0,1,16.26,1.35c5.37.74,10.74,1.53,16.08,2.57A112,112,0,0,1,801,503.89a48.94,48.94,0,0,1,7.55,3.3,21,21,0,0,1,6.52,5.31,11.14,11.14,0,0,1,2.31,8.28,16,16,0,0,1-1,4.18c-.23.68-.57,1.3-.86,1.95s-.65,1.26-1,1.84a44.72,44.72,0,0,1-11.4,12.06,60.67,60.67,0,0,1-14.48,8c-.65.27-1.3.49-2,.72s-1.31.47-2,.68-1.32.45-2,.68-1.33.46-2,.64a26.27,26.27,0,0,1-8.36,1.29,33.71,33.71,0,0,1-16.19-4.1l.33-.94a68.89,68.89,0,0,0,15.73.92c2.57-.25,5.13-.43,7.74-.71a30.42,30.42,0,0,0,3.89-.67,33.57,33.57,0,0,0,3.77-1.18,58.09,58.09,0,0,0,14-7.37,42.55,42.55,0,0,0,11-11.18c.37-.54.65-1.12,1-1.68s.6-1.14.81-1.75a13.93,13.93,0,0,0,1-3.64,9.24,9.24,0,0,0-1.78-7,19.21,19.21,0,0,0-5.89-5,47.64,47.64,0,0,0-7.23-3.38c-10.12-3.66-20.88-5.32-31.58-6.8a126.09,126.09,0,0,0-16.12-1.14,143,143,0,0,0-16.12,1.14c-2.68.3-5.36.67-8,1l-8.07,1.12-16.17,2.14-16.2,2c-5.4.65-10.8,1.38-16.26,2s-10.94,1.09-16.54,1.36a89.06,89.06,0,0,1-17.3-.68,19.89,19.89,0,0,1-2.24-.4l-2.27-.47c-1.51-.34-3-.88-4.56-1.33-.76-.27-1.51-.62-2.27-.93a22.66,22.66,0,0,1-2.25-1l-2.2-1.23c-.37-.22-.74-.41-1.1-.65l-1-.74c-.7-.5-1.38-1-2.06-1.53s-1.25-1.15-1.88-1.73a37.83,37.83,0,0,1-3.41-3.68,47.41,47.41,0,0,1-5.17-8.15,31.45,31.45,0,0,1-3.52-18.33,44,44,0,0,1,2.07-9.13c.26-.73.54-1.45.81-2.16l.38-1.06.48-1c.31-.69.56-1.39.9-2.06s.68-1.33,1-2a44.49,44.49,0,0,1,4.71-7.41,31.29,31.29,0,0,1,6.44-5.79,53.36,53.36,0,0,1,15.39-6.61c5.3-1.49,10.65-2.52,15.91-3.69,2.63-.58,5.25-1.2,7.81-1.93a58,58,0,0,0,7.51-2.62,29.8,29.8,0,0,0,6.7-4,19.62,19.62,0,0,0,5-5.84,20.74,20.74,0,0,0,2.29-7.35,25.26,25.26,0,0,0-.35-7.8,33.44,33.44,0,0,0-2.46-7.52,27.36,27.36,0,0,0-4.24-6.64,35.38,35.38,0,0,0-12.91-9.1,56.65,56.65,0,0,0-15.52-4,69.82,69.82,0,0,0-8.05-.46c-2.69,0-5.39.12-8.07.36a107.71,107.71,0,0,0-31.25,7.89Z"/></svg>