<svg width="427" height="781" viewBox="0 0 427 781" fill="none" xmlns="http://www.w3.org/2000/svg">
<path d="M1.99997 780.023L2 0" stroke="white" stroke-width="3.22764" stroke-miterlimit="10"/>
<path d="M400.853 658.186V227.402" stroke="white" stroke-width="3.22764" stroke-miterlimit="10"/>
<path d="M400.853 780.135V349.351" stroke="white" stroke-width="3.22764" stroke-miterlimit="10"/>
<path d="M250.81 307.43C250.81 263.4 286.524 227.402 330.869 227.402C366.286 227.402 394.857 255.962 394.857 291.365C394.857 319.628 371.94 342.535 343.667 342.535C321.048 342.535 302.595 324.09 302.595 301.48C302.595 283.332 317.179 268.755 335.333 268.755C349.917 268.755 361.524 280.357 361.524 294.935C361.524 306.538 352 315.76 340.69 315.76C331.464 315.76 324.024 308.323 324.024 299.1C324.024 291.662 329.976 285.712 337.417 285.712C343.369 285.712 348.131 290.472 348.131 296.422" stroke="white" stroke-width="3.22764" stroke-miterlimit="10" stroke-linecap="round"/>
<path d="M300.81 560.606V234.542" stroke="white" stroke-width="3.22764" stroke-miterlimit="10"/>
<path d="M400.852 656.367L5.75977 656.367" stroke="white" stroke-width="3.22764" stroke-miterlimit="10"/>
<path d="M200.811 656.699V256.855" stroke="white" stroke-width="3.22764" stroke-miterlimit="10"/>
<path d="M100.81 656.699V153.324" stroke="white" stroke-width="3.22764" stroke-miterlimit="10"/>
<path d="M350.81 656.699V415.424" stroke="white" stroke-width="3.22764" stroke-miterlimit="10"/>
<path d="M250.81 235.732C250.81 205.089 225.81 180.099 195.155 180.099C170.452 180.099 150.81 200.031 150.81 224.426C150.81 244.062 166.881 260.127 186.524 260.127C202.298 260.127 215.095 247.334 215.095 231.567C215.095 219.071 204.976 208.956 192.476 208.956C182.357 208.956 174.321 216.989 174.321 227.104C174.321 235.137 180.869 241.682 188.905 241.682C195.452 241.682 200.512 236.327 200.512 230.079C200.512 225.022 196.345 220.856 191.286 220.856C187.119 220.856 183.845 224.129 183.845 228.294" stroke="white" stroke-width="3.22764" stroke-miterlimit="10" stroke-linecap="round"/>
<path d="M200.809 604.338C200.809 631.411 178.786 653.129 152 653.129C130.274 653.129 113.012 635.576 113.012 614.156C113.012 596.901 127 582.918 144.262 582.918C157.952 582.918 169.262 594.223 169.262 607.908C169.262 618.916 160.333 627.841 149.321 627.841C140.393 627.841 133.25 620.701 133.25 611.776C133.25 604.636 138.905 598.983 146.047 598.983C151.702 598.983 156.167 603.446 156.167 609.098C156.167 613.561 152.595 617.428 147.833 617.428C144.262 617.428 141.286 614.453 141.286 610.883" stroke="white" stroke-width="3.22764" stroke-miterlimit="10" stroke-linecap="round"/>
<path d="M401.108 394.896C401.108 367.823 379.084 345.808 352.001 345.808C330.274 345.808 312.715 363.361 312.715 385.079C312.715 402.334 326.703 416.316 343.965 416.316C357.953 416.316 368.965 405.011 368.965 391.326C368.965 380.319 360.036 371.393 349.024 371.393C340.096 371.393 332.953 378.533 332.953 387.459C332.953 394.599 338.608 400.251 345.751 400.251C351.405 400.251 356.167 395.789 356.167 389.839C356.167 385.376 352.596 381.509 347.834 381.509C344.263 381.509 341.286 384.484 341.286 388.054" stroke="white" stroke-width="3.22764" stroke-miterlimit="10" stroke-linecap="round"/>
<path d="M5.57227 73.2953C5.57227 117.326 41.2866 153.324 85.6318 153.324C121.049 153.324 149.62 124.763 149.62 89.3604C149.62 61.0976 126.703 38.1899 98.4294 38.1899C75.8104 38.1899 57.358 56.6351 57.358 79.2453C57.358 97.393 71.9414 111.971 90.0961 111.971C104.679 111.971 116.287 100.368 116.287 85.7904C116.287 74.1878 106.763 64.9652 95.4532 64.9652C86.227 64.9652 78.7866 72.4028 78.7866 81.6254C78.7866 89.0629 84.739 95.013 92.1795 95.013C98.1318 95.013 102.894 90.253 102.894 84.3029" stroke="white" stroke-width="3.22764" stroke-miterlimit="10" stroke-linecap="round"/>
<path d="M250.81 604.338C250.81 631.411 272.833 653.129 299.619 653.129C321.345 653.129 338.607 635.576 338.607 614.156C338.607 596.901 324.619 582.918 307.357 582.918C293.667 582.918 282.357 594.223 282.357 607.908C282.357 618.916 291.286 627.841 302.298 627.841C311.226 627.841 318.369 620.701 318.369 611.776C318.369 604.636 312.714 598.983 305.571 598.983C299.917 598.983 295.452 603.446 295.452 609.098C295.452 613.561 299.024 617.428 303.786 617.428C307.357 617.428 310.333 614.453 310.333 610.883" stroke="white" stroke-width="3.22764" stroke-miterlimit="10" stroke-linecap="round"/>
<path d="M150.81 562.093V69.13" stroke="white" stroke-width="3.22764" stroke-miterlimit="10"/>
<path d="M150.81 697.913V204.95" stroke="white" stroke-width="3.22764" stroke-miterlimit="10"/>
<path d="M150.81 562.093C150.81 577.563 163.31 589.761 178.488 589.761C190.691 589.761 200.81 579.943 200.81 567.448C200.81 557.63 192.774 549.598 182.952 549.598C175.214 549.598 168.667 555.845 168.667 563.878C168.667 570.125 173.726 575.183 179.976 575.183" stroke="white" stroke-width="3.22764" stroke-miterlimit="10" stroke-linecap="round"/>
<path d="M150.81 164.331C150.81 179.801 138.31 191.999 123.131 191.999C110.929 191.999 100.81 182.181 100.81 169.686C100.81 159.869 108.845 151.836 118.667 151.836C126.405 151.836 132.952 158.084 132.952 166.116C132.952 172.364 127.893 177.421 121.643 177.421" stroke="white" stroke-width="3.22764" stroke-miterlimit="10" stroke-linecap="round"/>
<path d="M250.81 656.699V176.231" stroke="white" stroke-width="3.22764" stroke-miterlimit="10"/>
<path d="M50.8096 656.699V145.291" stroke="white" stroke-width="3.22764" stroke-miterlimit="10"/>
<path d="M300.81 560.605C300.81 576.075 288.31 588.273 273.131 588.273C260.929 588.273 250.81 578.455 250.81 565.96C250.81 556.143 258.845 548.11 268.667 548.11C276.405 548.11 282.952 554.358 282.952 562.39C282.952 568.638 277.893 573.695 271.643 573.695" stroke="white" stroke-width="3.22764" stroke-miterlimit="10" stroke-linecap="round"/>
<path d="M150.81 151.836C150.81 136.366 163.31 124.168 178.488 124.168C190.691 124.168 200.81 133.986 200.81 146.481C200.81 156.298 192.774 164.331 182.952 164.331C175.214 164.331 168.667 158.083 168.667 150.051C168.667 143.803 173.726 138.746 179.976 138.746" stroke="white" stroke-width="3.22764" stroke-miterlimit="10" stroke-linecap="round"/>
<path d="M150.81 697.457C150.81 741.488 115.095 777.188 71.0477 777.188C35.631 777.188 7.05957 748.628 7.05957 713.225C7.05957 684.962 29.9762 662.054 58.25 662.054C80.8691 662.054 99.0239 680.5 99.0239 702.812C99.0239 720.96 84.4406 735.538 66.2858 735.538C51.7025 735.538 40.0953 723.935 40.0953 709.357C40.0953 697.755 49.6191 688.532 60.9286 688.532C70.1548 688.532 77.5953 695.97 77.5953 705.192C77.5953 712.63 71.6429 718.58 64.2024 718.58C58.25 718.58 53.4882 713.82 53.4882 707.87" stroke="white" stroke-width="3.22764" stroke-miterlimit="10" stroke-linecap="round"/>
<path d="M150.81 697.457C150.81 741.488 186.524 777.188 230.571 777.188C265.988 777.188 294.56 748.628 294.56 713.225C294.56 684.962 271.643 662.054 243.369 662.054C220.75 662.054 202.595 680.5 202.595 702.812C202.595 720.96 217.179 735.538 235.333 735.538C249.917 735.538 261.524 723.935 261.524 709.357C261.524 697.755 252 688.532 240.691 688.532C231.464 688.532 224.024 695.97 224.024 705.192C224.024 712.63 229.976 718.58 237.417 718.58C243.369 718.58 248.131 713.82 248.131 707.87" stroke="white" stroke-width="3.22764" stroke-miterlimit="10" stroke-linecap="round"/>
<mask id="mask0_430_88" style="mask-type:alpha" maskUnits="userSpaceOnUse" x="2" y="0" width="426" height="231">
<path d="M427 221.154C427 221.154 340.393 254.177 245.155 171.769C149.917 89.3604 138.012 2.48943 2 2.48943" stroke="white" stroke-width="4.84146" stroke-miterlimit="10"/>
</mask>
<g mask="url(#mask0_430_88)">
<rect x="-12.1104" y="-12.4472" width="414.183" height="327.776" fill="white"/>
</g>
</svg>
