<svg width="510" height="973" viewBox="0 0 510 973" fill="none" xmlns="http://www.w3.org/2000/svg">
<path d="M212.502 370.315C212.502 317.255 169.474 273.874 116.048 273.874C73.3784 273.874 38.9561 308.292 38.9561 350.955C38.9561 385.015 66.5656 412.621 100.629 412.621C127.88 412.621 150.112 390.392 150.112 363.145C150.112 341.275 132.542 323.708 110.669 323.708C93.0995 323.708 79.1155 337.69 79.1155 355.258C79.1155 369.24 90.5896 380.354 104.215 380.354C115.331 380.354 124.295 371.391 124.295 360.277C124.295 351.314 117.123 344.144 108.159 344.144C100.988 344.144 95.2509 349.88 95.2509 357.05" stroke="white" stroke-width="3.22764" stroke-miterlimit="10" stroke-linecap="round"/>
<path d="M151.904 675.415V282.479" stroke="white" stroke-width="3.22764" stroke-miterlimit="10"/>
<path d="M31 791L508 791" stroke="white" stroke-width="3.22764" stroke-miterlimit="10"/>
<path d="M272.383 791.217V309.368" stroke="white" stroke-width="3.22764" stroke-miterlimit="10"/>
<path d="M392.86 791.217V184.603" stroke="white" stroke-width="3.22764" stroke-miterlimit="10"/>
<path d="M91.666 791.217V500.458" stroke="white" stroke-width="3.22764" stroke-miterlimit="10"/>
<path d="M212.144 283.912C212.144 246.985 242.263 216.869 279.195 216.869C308.956 216.869 332.622 240.89 332.622 270.288C332.622 293.951 313.259 313.311 289.594 313.311C270.59 313.311 255.171 297.894 255.171 278.893C255.171 263.835 267.363 251.645 282.423 251.645C294.614 251.645 304.295 261.326 304.295 273.515C304.295 283.195 296.407 291.083 286.725 291.083C278.837 291.083 272.741 284.629 272.741 277.1C272.741 271.006 277.761 265.986 283.857 265.986C288.877 265.986 292.821 269.93 292.821 274.949" stroke="white" stroke-width="3.22764" stroke-miterlimit="10" stroke-linecap="round"/>
<path d="M272.383 728.117C272.383 760.743 298.917 786.914 331.188 786.914C357.363 786.914 378.16 765.762 378.16 739.948C378.16 719.154 361.307 702.304 340.51 702.304C324.016 702.304 310.391 715.928 310.391 732.42C310.391 745.685 321.148 756.44 334.415 756.44C345.172 756.44 353.777 747.836 353.777 737.08C353.777 728.476 346.965 721.664 338.359 721.664C331.546 721.664 326.168 727.042 326.168 733.854C326.168 739.231 330.471 743.892 336.208 743.892C340.51 743.892 344.096 740.307 344.096 736.005" stroke="white" stroke-width="3.22764" stroke-miterlimit="10" stroke-linecap="round"/>
<path d="M31.4258 475.72C31.4258 443.095 57.9597 416.565 90.5892 416.565C116.765 416.565 137.92 437.717 137.92 463.889C137.92 484.683 121.067 501.534 100.27 501.534C83.4179 501.534 70.1509 487.91 70.1509 471.418C70.1509 458.153 80.9079 447.397 94.1749 447.397C104.932 447.397 113.537 456.002 113.537 466.757C113.537 475.362 106.725 482.174 98.1191 482.174C91.3063 482.174 85.5693 476.796 85.5693 469.626C85.5693 464.248 89.8721 459.587 95.6091 459.587C99.9119 459.587 103.498 463.172 103.498 467.474" stroke="white" stroke-width="3.22764" stroke-miterlimit="10" stroke-linecap="round"/>
<path d="M507 87.8171C507 140.878 464.574 184.603 411.147 184.603C368.478 184.603 334.056 150.185 334.056 107.521C334.056 73.4622 361.665 45.8562 395.729 45.8562C422.98 45.8562 445.211 68.0844 445.211 95.3318C445.211 117.201 427.641 134.769 405.769 134.769C388.199 134.769 374.215 120.787 374.215 103.219C374.215 89.237 385.689 78.1229 399.315 78.1229C410.43 78.1229 419.394 87.0859 419.394 98.2C419.394 107.163 412.223 114.333 403.259 114.333C396.088 114.333 390.351 108.597 390.351 101.427" stroke="white" stroke-width="3.22764" stroke-miterlimit="10" stroke-linecap="round"/>
<path d="M212.143 728.117C212.143 760.743 185.609 786.914 153.338 786.914C127.163 786.914 106.366 765.762 106.366 739.948C106.366 719.154 123.219 702.304 144.016 702.304C160.51 702.304 174.135 715.928 174.135 732.42C174.135 745.685 163.378 756.44 150.111 756.44C139.354 756.44 130.749 747.836 130.749 737.08C130.749 728.476 137.561 721.664 146.167 721.664C152.98 721.664 158.358 727.042 158.358 733.854C158.358 739.231 154.056 743.892 148.318 743.892C144.016 743.892 140.43 740.307 140.43 736.005" stroke="white" stroke-width="3.22764" stroke-miterlimit="10" stroke-linecap="round"/>
<path d="M332.622 677.208V83.1418" stroke="white" stroke-width="3.22764" stroke-miterlimit="10"/>
<path d="M332.622 677.208C332.622 695.851 317.562 710.55 299.275 710.55C284.574 710.55 272.383 698.719 272.383 683.661C272.383 671.83 282.064 662.15 293.897 662.15C303.219 662.15 311.108 669.679 311.108 679.359C311.108 686.888 305.012 692.983 297.482 692.983" stroke="white" stroke-width="3.22764" stroke-miterlimit="10" stroke-linecap="round"/>
<path d="M332.622 197.868C332.622 216.511 347.682 231.21 365.969 231.21C380.67 231.21 392.861 219.379 392.861 204.321C392.861 192.49 383.18 182.81 371.347 182.81C362.024 182.81 354.136 190.339 354.136 200.019C354.136 207.548 360.232 213.643 367.762 213.643" stroke="white" stroke-width="3.22764" stroke-miterlimit="10" stroke-linecap="round"/>
<path d="M212.144 791.217V212.209" stroke="white" stroke-width="3.22764" stroke-miterlimit="10"/>
<path d="M453.1 791.216V174.922" stroke="white" stroke-width="3.22764" stroke-miterlimit="10"/>
<path d="M31 793L31 270" stroke="white" stroke-width="3.22764" stroke-miterlimit="10"/>
<path d="M31.4258 972.135V453" stroke="white" stroke-width="3.22764" stroke-miterlimit="10"/>
<path d="M151.904 675.415C151.904 694.058 166.964 708.757 185.251 708.757C199.952 708.757 212.143 696.926 212.143 681.868C212.143 670.037 202.462 660.357 190.629 660.357C181.307 660.357 173.418 667.886 173.418 677.566C173.418 685.095 179.514 691.19 187.044 691.19" stroke="white" stroke-width="3.22764" stroke-miterlimit="10" stroke-linecap="round"/>
<path d="M332.622 182.81C332.622 164.167 317.562 149.468 299.275 149.468C284.574 149.468 272.383 161.299 272.383 176.357C272.383 188.188 282.064 197.868 293.897 197.868C303.219 197.868 311.108 190.339 311.108 180.659C311.108 173.13 305.012 167.035 297.482 167.035" stroke="white" stroke-width="3.22764" stroke-miterlimit="10" stroke-linecap="round"/>
<path d="M332.98 840.334C332.98 893.395 376.008 936.418 429.076 936.418C471.746 936.418 506.168 902 506.168 859.336C506.168 825.277 478.558 797.671 444.495 797.671C417.244 797.671 395.371 819.899 395.371 846.788C395.371 868.657 412.941 886.225 434.813 886.225C452.383 886.225 466.367 872.243 466.367 854.675C466.367 840.693 454.893 829.579 441.267 829.579C430.152 829.579 421.188 838.542 421.188 849.656C421.188 858.619 428.359 865.789 437.323 865.789C444.495 865.789 450.232 860.053 450.232 852.883" stroke="white" stroke-width="3.22764" stroke-miterlimit="10" stroke-linecap="round"/>
<path d="M332.98 840.334C332.98 893.395 289.952 936.418 236.885 936.418C194.215 936.418 159.793 902 159.793 859.336C159.793 825.277 187.403 797.671 221.466 797.671C248.717 797.671 270.59 819.899 270.59 846.788C270.59 868.657 253.02 886.225 231.148 886.225C213.578 886.225 199.594 872.243 199.594 854.675C199.594 840.693 211.068 829.579 224.693 829.579C235.809 829.579 244.773 838.542 244.773 849.656C244.773 858.619 237.602 865.789 228.638 865.789C221.466 865.789 215.729 860.053 215.729 852.883" stroke="white" stroke-width="3.22764" stroke-miterlimit="10" stroke-linecap="round"/>
<path d="M507.333 971.907V2" stroke="white" stroke-width="3.22764" stroke-miterlimit="10"/>
<path d="M333 840.883V246.817" stroke="white" stroke-width="3.22764" stroke-miterlimit="10"/>
<mask id="mask0_372_111" style="mask-type:alpha" maskUnits="userSpaceOnUse" x="-1" y="0" width="511" height="277">
<path d="M0 265.952C0 265.952 103.929 305.69 218.214 206.523C332.5 107.355 346.786 2.81714 510 2.81714" stroke="white" stroke-width="4.84146" stroke-miterlimit="10"/>
</mask>
<g mask="url(#mask0_372_111)">
<rect x="31" y="-13" width="491" height="370" fill="white"/>
</g>
</svg>
