<svg width="510" height="973" viewBox="0 0 510 973" fill="none" xmlns="http://www.w3.org/2000/svg">
<path d="M297.498 370.315C297.498 317.255 340.526 273.874 393.952 273.874C436.622 273.874 471.044 308.292 471.044 350.955C471.044 385.015 443.434 412.621 409.371 412.621C382.12 412.621 359.888 390.392 359.888 363.145C359.888 341.275 377.458 323.708 399.331 323.708C416.9 323.708 430.885 337.69 430.885 355.258C430.885 369.24 419.41 380.354 405.785 380.354C394.669 380.354 385.705 371.391 385.705 360.277C385.705 351.314 392.877 344.144 401.841 344.144C409.012 344.144 414.749 349.88 414.749 357.05" stroke="white" stroke-width="3.22764" stroke-miterlimit="10" stroke-linecap="round"/>
<path d="M358.096 675.415V282.479" stroke="white" stroke-width="3.22764" stroke-miterlimit="10"/>
<path d="M479 791L1.99999 791" stroke="white" stroke-width="3.22764" stroke-miterlimit="10"/>
<path d="M237.617 791.217V309.368" stroke="white" stroke-width="3.22764" stroke-miterlimit="10"/>
<path d="M117.14 791.217V184.603" stroke="white" stroke-width="3.22764" stroke-miterlimit="10"/>
<path d="M418.334 791.217V500.458" stroke="white" stroke-width="3.22764" stroke-miterlimit="10"/>
<path d="M297.856 283.912C297.856 246.985 267.737 216.869 230.805 216.869C201.044 216.869 177.378 240.89 177.378 270.288C177.378 293.951 196.741 313.311 220.406 313.311C239.41 313.311 254.829 297.894 254.829 278.893C254.829 263.835 242.637 251.645 227.577 251.645C215.386 251.645 205.705 261.326 205.705 273.515C205.705 283.195 213.593 291.083 223.275 291.083C231.163 291.083 237.259 284.629 237.259 277.1C237.259 271.006 232.239 265.986 226.143 265.986C221.123 265.986 217.179 269.93 217.179 274.949" stroke="white" stroke-width="3.22764" stroke-miterlimit="10" stroke-linecap="round"/>
<path d="M237.617 728.117C237.617 760.743 211.083 786.914 178.812 786.914C152.637 786.914 131.84 765.762 131.84 739.948C131.84 719.154 148.693 702.304 169.49 702.304C185.984 702.304 199.609 715.928 199.609 732.42C199.609 745.685 188.852 756.44 175.585 756.44C164.828 756.44 156.223 747.836 156.223 737.08C156.223 728.476 163.035 721.664 171.641 721.664C178.454 721.664 183.832 727.042 183.832 733.854C183.832 739.231 179.529 743.892 173.792 743.892C169.49 743.892 165.904 740.307 165.904 736.005" stroke="white" stroke-width="3.22764" stroke-miterlimit="10" stroke-linecap="round"/>
<path d="M478.574 475.72C478.574 443.095 452.04 416.565 419.411 416.565C393.235 416.565 372.08 437.717 372.08 463.889C372.08 484.683 388.933 501.534 409.73 501.534C426.582 501.534 439.849 487.91 439.849 471.418C439.849 458.153 429.092 447.397 415.825 447.397C405.068 447.397 396.463 456.002 396.463 466.757C396.463 475.362 403.275 482.174 411.881 482.174C418.694 482.174 424.431 476.796 424.431 469.626C424.431 464.248 420.128 459.587 414.391 459.587C410.088 459.587 406.502 463.172 406.502 467.474" stroke="white" stroke-width="3.22764" stroke-miterlimit="10" stroke-linecap="round"/>
<path d="M3 87.8171C3 140.878 45.4263 184.603 98.8526 184.603C141.522 184.603 175.944 150.185 175.944 107.521C175.944 73.4622 148.335 45.8562 114.271 45.8562C87.02 45.8562 64.7889 68.0844 64.7889 95.3318C64.7889 117.201 82.3586 134.769 104.231 134.769C121.801 134.769 135.785 120.787 135.785 103.219C135.785 89.237 124.311 78.1229 110.685 78.1229C99.5698 78.1229 90.6056 87.0859 90.6056 98.2C90.6056 107.163 97.777 114.333 106.741 114.333C113.912 114.333 119.649 108.597 119.649 101.427" stroke="white" stroke-width="3.22764" stroke-miterlimit="10" stroke-linecap="round"/>
<path d="M297.857 728.117C297.857 760.743 324.391 786.914 356.662 786.914C382.837 786.914 403.634 765.762 403.634 739.948C403.634 719.154 386.781 702.304 365.984 702.304C349.49 702.304 335.865 715.928 335.865 732.42C335.865 745.685 346.622 756.44 359.889 756.44C370.646 756.44 379.251 747.836 379.251 737.08C379.251 728.476 372.439 721.664 363.833 721.664C357.02 721.664 351.642 727.042 351.642 733.854C351.642 739.231 355.944 743.892 361.682 743.892C365.984 743.892 369.57 740.307 369.57 736.005" stroke="white" stroke-width="3.22764" stroke-miterlimit="10" stroke-linecap="round"/>
<path d="M177.378 677.208V83.1418" stroke="white" stroke-width="3.22764" stroke-miterlimit="10"/>
<path d="M177.378 677.208C177.378 695.851 192.438 710.55 210.725 710.55C225.426 710.55 237.617 698.719 237.617 683.661C237.617 671.83 227.936 662.15 216.103 662.15C206.781 662.15 198.892 669.679 198.892 679.359C198.892 686.888 204.988 692.983 212.518 692.983" stroke="white" stroke-width="3.22764" stroke-miterlimit="10" stroke-linecap="round"/>
<path d="M177.378 197.868C177.378 216.511 162.318 231.21 144.031 231.21C129.33 231.21 117.139 219.379 117.139 204.321C117.139 192.49 126.82 182.81 138.653 182.81C147.976 182.81 155.864 190.339 155.864 200.019C155.864 207.548 149.768 213.643 142.238 213.643" stroke="white" stroke-width="3.22764" stroke-miterlimit="10" stroke-linecap="round"/>
<path d="M297.856 791.217V212.209" stroke="white" stroke-width="3.22764" stroke-miterlimit="10"/>
<path d="M56.9004 791.216V174.922" stroke="white" stroke-width="3.22764" stroke-miterlimit="10"/>
<path d="M479 793L479 270" stroke="white" stroke-width="3.22764" stroke-miterlimit="10"/>
<path d="M478.574 972.135V453" stroke="white" stroke-width="3.22764" stroke-miterlimit="10"/>
<path d="M358.096 675.415C358.096 694.058 343.036 708.757 324.749 708.757C310.048 708.757 297.857 696.926 297.857 681.868C297.857 670.037 307.538 660.357 319.371 660.357C328.693 660.357 336.582 667.886 336.582 677.566C336.582 685.095 330.486 691.19 322.956 691.19" stroke="white" stroke-width="3.22764" stroke-miterlimit="10" stroke-linecap="round"/>
<path d="M177.378 182.81C177.378 164.167 192.438 149.468 210.725 149.468C225.426 149.468 237.617 161.299 237.617 176.357C237.617 188.188 227.936 197.868 216.103 197.868C206.781 197.868 198.892 190.339 198.892 180.659C198.892 173.13 204.988 167.035 212.518 167.035" stroke="white" stroke-width="3.22764" stroke-miterlimit="10" stroke-linecap="round"/>
<path d="M177.02 840.334C177.02 893.395 133.992 936.418 80.9238 936.418C38.2544 936.418 3.8321 902 3.8321 859.336C3.8321 825.277 31.4417 797.671 65.5055 797.671C92.7565 797.671 114.629 819.899 114.629 846.788C114.629 868.657 97.0593 886.225 75.1868 886.225C57.617 886.225 43.633 872.243 43.633 854.675C43.633 840.693 55.1071 829.579 68.7326 829.579C79.8481 829.579 88.8123 838.542 88.8123 849.656C88.8123 858.619 81.6409 865.789 72.6768 865.789C65.5055 865.789 59.7684 860.053 59.7684 852.883" stroke="white" stroke-width="3.22764" stroke-miterlimit="10" stroke-linecap="round"/>
<path d="M177.02 840.334C177.02 893.395 220.048 936.418 273.115 936.418C315.785 936.418 350.207 902 350.207 859.336C350.207 825.277 322.597 797.671 288.534 797.671C261.283 797.671 239.41 819.899 239.41 846.788C239.41 868.657 256.98 886.225 278.852 886.225C296.422 886.225 310.406 872.243 310.406 854.675C310.406 840.693 298.932 829.579 285.307 829.579C274.191 829.579 265.227 838.542 265.227 849.656C265.227 858.619 272.398 865.789 281.362 865.789C288.534 865.789 294.271 860.053 294.271 852.883" stroke="white" stroke-width="3.22764" stroke-miterlimit="10" stroke-linecap="round"/>
<path d="M2.66699 971.907V2" stroke="white" stroke-width="3.22764" stroke-miterlimit="10"/>
<path d="M177 840.883V246.817" stroke="white" stroke-width="3.22764" stroke-miterlimit="10"/>
<mask id="mask0_372_111" style="mask-type:alpha" maskUnits="userSpaceOnUse" x="0" y="0" width="511" height="277">
<path d="M510 265.952C510 265.952 406.071 305.69 291.786 206.523C177.5 107.355 163.214 2.81714 -6.0354e-06 2.81714" stroke="white" stroke-width="4.84146" stroke-miterlimit="10"/>
</mask>
<g mask="url(#mask0_372_111)">
<rect width="491" height="370" transform="matrix(-1 0 0 1 479 -13)" fill="white"/>
</g>
</svg>
