<svg id="Layer_1" data-name="Layer 1" xmlns="http://www.w3.org/2000/svg" viewBox="0 0 1000 1000"><defs><style>.cls-1{fill:#fff;}</style></defs><path class="cls-1" d="M205.15,519.52c0,20.08-16,32.54-43.32,32.54H99.36v-2.79c15.24,0,17.29-1.86,17.29-11.9V440.32c0-10.6-1.49-11.9-17.29-11.9v-2.79h58.19c29.75,0,44.81,8.55,44.81,30.12,0,19.71-19.89,30.68-44.81,31.42C182.28,487.91,205.15,493.68,205.15,519.52ZM136,428.42V485.5H150.3c21.75,0,31-8.93,31-27.89,0-19.15-9.67-29.19-27.89-29.19Zm48.16,89.8c0-21.75-6-29.94-42.21-29.94H136V531.6c0,11.72,7.06,17.67,21,17.67C174.15,549.27,184.15,537.93,184.15,518.22Z"/><path class="cls-1" d="M224.67,508.18c0-28.26,17.84-46.48,42.94-46.48s43,18.22,43,46.48-17.85,46.48-43,46.48S224.67,536.44,224.67,508.18ZM291,512.64c0-27.14-9.67-48.15-24.91-48.15-10.42,0-21.94,9.85-21.94,39.23,0,27,9.67,48.15,24.91,48.15C279.51,551.87,291,542,291,512.64Z"/><path class="cls-1" d="M400.73,517.66l-1.49,34.4h-71V536.44l62.1-56.89H344c-13.2,0-15.05,2.23-15.8,14.13h-1.86V463.93h69.54v15.62l-62.1,56.89h47c13.57,0,16-1.67,18-18.78Z"/><path class="cls-1" d="M496.66,539c0,8.37,2.23,10.23,12.46,10.23V552H468.59v-2.79c9.85,0,11.71-1.68,11.71-10.23V494.61c0-15.44-6.88-21.57-17.47-21.57-8.18,0-14.13,2.6-20.27,9.85V539c0,8.93,2.23,10.23,12.09,10.23V552H413.74v-2.79c10.41,0,12.46-1.49,12.46-10.23V440.32c0-11.16-2.23-12.09-12.46-10.79v-1.86l27.71-7.62h1.11v61c4.65-12.08,14.87-19.33,27-19.33,17.66,0,27.14,10.78,27.14,30.49Z"/><path class="cls-1" d="M536.45,496.65a51,51,0,0,0-.19,5.39c0,23.61,11.53,36.63,29.56,36.63,11.16,0,21.2-5.95,25.29-16.18l1.49.56c-3.72,21.2-13.39,31.61-31.8,31.61-24,0-39.6-17.66-39.6-44.62,0-28.82,14.88-48.34,40-48.34,21.93,0,34,12.64,33.83,34.95Zm.18-2.79h41.28c0-17.29-5.58-29.56-19-29.56C546.86,464.3,538.49,475.08,536.63,493.86Z"/><path class="cls-1" d="M757.32,534.39c.93,11.9,4.46,14.88,17.29,14.88v2.79h-56v-2.79c17.48,0,20.45-2.42,19.33-15.81l-8-94.63-40,113.6H678.86l-40.71-113-8.36,92c-1.49,14.69,2.41,17.66,22.49,17.66v3H609v-2.79c12.09,0,16.37-4.28,17.48-17.85L634.05,447c1.68-16.73.19-18.59-14.68-18.59v-2.79h34.78l38.67,108.76,38.12-108.76h35.14v2.79c-16,0-18,2.23-16.55,18.59Z"/><path class="cls-1" d="M781.15,508.18c0-28.26,17.85-46.48,43-46.48S867,479.92,867,508.18s-17.89,46.48-43,46.48S781.15,536.44,781.15,508.18Zm66.37,4.46c0-27.14-9.67-48.15-24.91-48.15-10.41,0-21.94,9.85-21.94,39.23,0,27,9.67,48.15,24.91,48.15,10.38,0,21.91-9.87,21.91-39.23Z"/><path class="cls-1" d="M895.08,585.52c8.74-6.32,13-12.64,21.57-32.91l-33.09-78.27c-2.79-6.51-4.09-7.62-9.3-7.62v-2.79h41.83v2.79c-9.48,0-13.38,1.11-13.38,5.76,0,2.42,1.11,5.58,2.79,10l19.7,48.9,18.41-46.85c1.86-4.84,3-8.37,3-11,0-5.58-4.84-6.88-16.74-6.88v-2.79h32v2.79c-5.58,0-7.81,1.3-13,14.69L919.63,555c-10.23,26-20.45,37-34.21,37"/><path class="cls-1" d="M907.21,577.16c-3,8.14-10.74,14.35-19.59,16.26a35.18,35.18,0,0,1-13.33.48c-1.08-.15-2.16-.36-3.17-.59s-2.06-.45-3.07-.72c-2-.48-4-1.1-6-1.72a186.19,186.19,0,0,1-22.9-9.43q-5.55-2.62-11-5.45-2.73-1.41-5.41-2.9l-2.67-1.5-1.33-.77-.66-.39-.33-.2-.17-.1h-.08l-.1-.06a98.25,98.25,0,0,0-26.52-11.15,117.63,117.63,0,0,0-28.69-3.7,94.62,94.62,0,0,0-28.61,4,46.42,46.42,0,0,0-12.91,6.19,21.09,21.09,0,0,0-5,4.93,12.16,12.16,0,0,0-2.28,6.38,14.81,14.81,0,0,0,5.76,12,14.3,14.3,0,0,0,6.22,2.84,17,17,0,0,0,6.92-.18,24.1,24.1,0,0,0,6.58-2.42,14.24,14.24,0,0,0,5-4.57,13,13,0,0,0,2-6.42,18.06,18.06,0,0,0-1-6.76,8.21,8.21,0,0,0-4.56-4.35,29.63,29.63,0,0,0-6.73-2c-4.71-.87-9.56-1.26-14.4-1.69-9.71-.8-19.48-1.6-29.21-2.92-4.85-.65-9.72-1.46-14.52-2.3s-9.63-1.67-14.45-2.62a196.75,196.75,0,0,1-28.6-7.54,121.45,121.45,0,0,1-26.75-13.19c-1-.68-2.06-1.4-3.1-2.11s-2-1.5-3-2.27c-2-1.53-3.88-3.11-5.72-4.78A125.34,125.34,0,0,1,583.31,515a132.65,132.65,0,0,1-9.23-11.63q-2.16-3-4.11-6.17c-1.32-2.09-2.56-4.23-3.7-6.42-4.65-8.68-7.84-18.39-7.9-28.34a49,49,0,0,1,2.16-14.63,51.46,51.46,0,0,1,6.38-13.28A74.13,74.13,0,0,1,588,414.28l.55.83A78.08,78.08,0,0,0,577.15,424a61.44,61.44,0,0,0-9.34,11.07,47,47,0,0,0-7.9,27.31c.3,9.63,3.61,18.95,8.35,27.29,1.21,2.08,2.51,4.11,3.88,6.09s2.86,3.88,4.38,5.74a128.74,128.74,0,0,0,9.86,10.5c1.74,1.66,3.52,3.27,5.32,4.86s3.64,3.14,5.49,4.66,3.73,3,5.63,4.47,3.82,2.8,5.8,4.14A121.79,121.79,0,0,0,634.15,543a218.55,218.55,0,0,0,27.78,8c4.73,1.07,9.5,2,14.27,3s9.53,1.9,14.32,2.67c9.57,1.59,19.23,2.66,28.94,3.74,4.85.57,9.72,1.12,14.6,2.13a31.37,31.37,0,0,1,7.23,2.29,12.61,12.61,0,0,1,3.32,2.22,8.88,8.88,0,0,1,2.27,3.43,20.2,20.2,0,0,1,1,7.64,15,15,0,0,1-2.39,7.37,16,16,0,0,1-5.73,5.14,26.31,26.31,0,0,1-7.12,2.54,19.35,19.35,0,0,1-7.62.12,16.22,16.22,0,0,1-6.94-3.2,16.54,16.54,0,0,1-6.22-13.5,13.78,13.78,0,0,1,2.6-7.2,23.49,23.49,0,0,1,5.36-5.31,48.16,48.16,0,0,1,13.33-6.48,100,100,0,0,1,29.1-4.3,120,120,0,0,1,29.26,3.34A100.6,100.6,0,0,1,819,567.49h-.1l2.72,1.52,2.66,1.42c1.78.94,3.58,1.85,5.38,2.74,3.62,1.76,7.3,3.41,11,4.91q2.82,1.09,5.64,2.12c1.9.66,3.81,1.27,5.72,1.85,3.83,1.17,7.69,2.19,11.56,3,1.94.4,3.88.78,5.81,1.11s3.9.61,5.74.79a34.31,34.31,0,0,0,10.84-.62,33.26,33.26,0,0,0,5.19-1.63,49.66,49.66,0,0,0,5-2.22c3.36-1.67,6.6-3.75,10.24-6Z"/><path class="cls-1" d="M239.63,524.57a9.24,9.24,0,0,1-2.89-3.26,3.59,3.59,0,0,1-.31-2.57c.44-1.53.87-3.07,1.35-4.6,1-3.05,2-6.08,3.28-9.07s2.59-5.93,4.13-8.81,3.2-5.73,5-8.46a57.42,57.42,0,0,1,6.12-7.85,26.57,26.57,0,0,1,3.83-3.36,13.52,13.52,0,0,1,4.78-2.2,9,9,0,0,1,2.69-.23,11.11,11.11,0,0,1,2.57.48,18.9,18.9,0,0,1,4.56,2.05,30.06,30.06,0,0,1,3.94,2.87,45.4,45.4,0,0,1,3.54,3.26,181,181,0,0,1,12.27,14.54c2,2.49,3.89,5,5.9,7.36a62,62,0,0,0,6.35,6.71c2.25,1.93,4.84,3.63,7,2.77,2.46-.76,4.57-2.89,6.22-5.28a35.6,35.6,0,0,0,3.93-8,39.23,39.23,0,0,0,2.1-8.74l2.7.08a29.85,29.85,0,0,1-1.54,9.74,32.52,32.52,0,0,1-4.34,8.9,20.75,20.75,0,0,1-3.42,3.83,13.92,13.92,0,0,1-2.19,1.54,11.73,11.73,0,0,1-2.56,1,7.58,7.58,0,0,1-3,.21,9,9,0,0,1-2.7-.9,18.61,18.61,0,0,1-4.12-3.06,65.62,65.62,0,0,1-6.31-7.32c-1.92-2.53-3.76-5.1-5.62-7.64s-3.72-5.07-5.69-7.52a73.71,73.71,0,0,0-6.22-7,32.78,32.78,0,0,0-7.25-5.64c-2.58-1.4-5.58-2.4-8.19-1.6s-4.71,3.05-6.34,5.5a42.07,42.07,0,0,0-4,8.1c-2.14,5.72-3.58,11.74-5.17,17.7q-1.17,4.5-2.42,9l-1.28,4.48a3.41,3.41,0,0,1-1.59,2,9.45,9.45,0,0,1-4.14,1.3Z"/><path class="cls-1" d="M152,653.59A113.81,113.81,0,0,0,176.57,642a108.1,108.1,0,0,0,21.12-17,94.24,94.24,0,0,0,15.75-22,95.75,95.75,0,0,0,5.3-12.48,100.69,100.69,0,0,0,3.51-13.12,112.7,112.7,0,0,0,2-27,104.58,104.58,0,0,0-4.6-26.67,71.58,71.58,0,0,0-12.38-23.8,44.85,44.85,0,0,0-9.8-9,35.76,35.76,0,0,0-12.11-5.26,40.69,40.69,0,0,0-13.21-.67A71.38,71.38,0,0,0,159,487.8c-8.65,2.62-17,6.26-25.58,9.5s-17.4,6.22-26.75,6.95a44.84,44.84,0,0,1-14-1,41.24,41.24,0,0,1-12.91-5.6c-8-5.11-14-12.61-18.39-20.82a72.75,72.75,0,0,1-7.87-26.63,60.81,60.81,0,0,1,3.38-27.62A57.12,57.12,0,0,1,73.22,400a81.83,81.83,0,0,1,24-14,104.91,104.91,0,0,1,27-6.23,102.39,102.39,0,0,1,27.75,1,76.37,76.37,0,0,1,26.19,9.54,79.51,79.51,0,0,1,11.29,8.26,74.83,74.83,0,0,1,9.71,10.11,52,52,0,0,1,7.31,12.12A30.23,30.23,0,0,1,209,435.06a22.08,22.08,0,0,1-1.84,7.22,22.93,22.93,0,0,1-4.11,6.2,46.74,46.74,0,0,1-11.38,8.57,133.16,133.16,0,0,1-12.43,6.19c-4.2,1.88-8.44,3.62-12.69,5.33q-25.38,10.21-51.38,19.15-13,4.47-26,8.7c-8.68,2.84-17.4,5.57-26,8.53a121.39,121.39,0,0,0-12.46,4.95c-3.86,1.87-7.69,4.36-7.9,7.51A9.52,9.52,0,0,0,44,522.66a23.4,23.4,0,0,0,3.61,5,50.31,50.31,0,0,0,10.11,8.23,85.88,85.88,0,0,0,24.45,10.44,74.88,74.88,0,0,0,13.13,2.13c1.1.09,2.21.13,3.31.16h1.68a8,8,0,0,1,.87.25c.29.08.58.11.86.16a53.32,53.32,0,0,0,6.77.86l.13,1c-2.32.56-4.63.88-6.91,1.23-.28,0-.56.09-.85.16s-.57.2-.85.25a16.83,16.83,0,0,1-1.74,0c-1.18,0-2.35,0-3.52-.1a78.57,78.57,0,0,1-13.89-2,85.47,85.47,0,0,1-25.88-10.67,55,55,0,0,1-11.07-9,27.93,27.93,0,0,1-4.34-6.06,14.08,14.08,0,0,1-1.68-7.92,10.19,10.19,0,0,1,1.48-4.17,13.88,13.88,0,0,1,2.74-3.08,30.76,30.76,0,0,1,6.31-3.88,126.91,126.91,0,0,1,13-5.1c8.7-3,17.41-5.66,26.09-8.46s17.34-5.62,26-8.56q25.86-8.83,51.31-18.8c4.22-1.68,8.43-3.39,12.57-5.22s8.22-3.75,12.1-5.95a43.23,43.23,0,0,0,10.45-7.76,18.21,18.21,0,0,0,5-11.11,26.19,26.19,0,0,0-2.17-12.44A47.37,47.37,0,0,0,196.31,411a75.9,75.9,0,0,0-19.93-17.57,72.68,72.68,0,0,0-24.93-9.19,99.45,99.45,0,0,0-26.8-1.11A101.11,101.11,0,0,0,98.46,389a78.37,78.37,0,0,0-23.14,13.28,53.91,53.91,0,0,0-15.58,21.24,57.84,57.84,0,0,0-3.3,26.23,70.1,70.1,0,0,0,7.44,25.59c4.14,7.88,9.92,15,17.36,19.85a38.72,38.72,0,0,0,12.06,5.3,42.41,42.41,0,0,0,13.19,1c8.9-.65,17.58-3.51,26.07-6.68s16.93-6.81,25.77-9.45a74.37,74.37,0,0,1,13.6-2.83,43,43,0,0,1,14,.74A38.07,38.07,0,0,1,198.7,489a47.07,47.07,0,0,1,10.22,9.5,73.23,73.23,0,0,1,12.6,24.55,106.62,106.62,0,0,1,4.53,27.17,113.75,113.75,0,0,1-2.2,27.43A102.47,102.47,0,0,1,220.21,591a97.61,97.61,0,0,1-5.46,12.66,95.8,95.8,0,0,1-16.11,22.27A109.06,109.06,0,0,1,177.15,643a114.63,114.63,0,0,1-24.89,11.54Z"/><path class="cls-1" d="M327.46,513.35q7.25-10.34,13.86-21.08a231,231,0,0,0,12.18-22c1.81-3.78,3.48-7.63,4.91-11.55a63.21,63.21,0,0,0,3.26-12,29.83,29.83,0,0,0,.36-6.12,16.62,16.62,0,0,0-1.24-5.82,11.29,11.29,0,0,0-3.47-4.56,14.88,14.88,0,0,0-5.31-2.45c-3.93-1-8.2-1.52-12.35-2.76a41.12,41.12,0,0,1-11.78-5.49,51.73,51.73,0,0,1-9.67-8.67,62.25,62.25,0,0,1-7.53-10.55,55,55,0,0,1-5.08-12.08,32.75,32.75,0,0,1-1-13.5,22,22,0,0,1,2.25-6.75,27.21,27.21,0,0,1,4-5.74,44.63,44.63,0,0,1,10.66-8.34,88.36,88.36,0,0,1,24.64-9.18,137.27,137.27,0,0,1,25.77-3.11,168.75,168.75,0,0,1,51.2,6.5,151,151,0,0,1,24.15,9.31,189.75,189.75,0,0,1,22.37,12.72,148.31,148.31,0,0,1,20.26,16,98.22,98.22,0,0,1,16.47,20,64.26,64.26,0,0,1,9,24.46,58.65,58.65,0,0,1-2.3,25.88,70.81,70.81,0,0,1-12.39,22.63A95.39,95.39,0,0,1,482,496.68a115.85,115.85,0,0,1-46.62,19.92,98.16,98.16,0,0,1-25.44,1.4,100.83,100.83,0,0,1-24.86-5.33,120.82,120.82,0,0,1-43-26.42c-6.09-5.87-11.68-12.37-15.71-19.9a38.14,38.14,0,0,1-2.5-5.89,18.74,18.74,0,0,1-1-6.39,8.89,8.89,0,0,1,2.56-6,14.91,14.91,0,0,1,5.79-2.93c4.08-1.22,8.21-2,12.34-2.89l12.39-2.49c8.25-1.66,16.49-3.36,24.71-5.15l24.65-5.42,6.16-1.37c2-.47,4.15-.91,6.22-1.26,4.17-.71,8.38-1.16,12.54-1.54l.23,1a117.28,117.28,0,0,1-12.3,3c-4.08.83-8.19,1.79-12.31,2.66q-12.36,2.67-24.78,5t-24.86,4.51c-4.15.73-8.3,1.42-12.43,2.2a125.44,125.44,0,0,0-12.26,2.75,14,14,0,0,0-5.4,2.69,7.62,7.62,0,0,0-2.22,5.33,17.26,17.26,0,0,0,1,6,35.5,35.5,0,0,0,2.48,5.69c4,7.32,9.57,13.71,15.63,19.45A119.14,119.14,0,0,0,385.64,511a99,99,0,0,0,24.43,5,92.81,92.81,0,0,0,12.48,0,97,97,0,0,0,12.37-1.67,113.29,113.29,0,0,0,45.23-20.21,91.88,91.88,0,0,0,17.71-17.25,67,67,0,0,0,11.39-21.61,53.28,53.28,0,0,0,1.7-24,57.61,57.61,0,0,0-8.89-22.4,88.46,88.46,0,0,0-16.18-18.31,142.83,142.83,0,0,0-20-14.56A187.94,187.94,0,0,0,444,364.56c-3.78-1.68-7.58-3.24-11.42-4.61s-7.78-2.57-11.73-3.65a176.66,176.66,0,0,0-48.65-5.94,155.92,155.92,0,0,0-24.39,2.26,98.65,98.65,0,0,0-11.84,2.76,68.56,68.56,0,0,0-11.21,4.3,38.36,38.36,0,0,0-9.62,6.53,18.86,18.86,0,0,0-5.57,9.39,26.85,26.85,0,0,0,.26,11.53A46.31,46.31,0,0,0,314,398.48a53.06,53.06,0,0,0,15.61,18.6,38.69,38.69,0,0,0,10.88,5.4c3.9,1.28,8,1.85,12.23,3a17.11,17.11,0,0,1,6,3,13.2,13.2,0,0,1,4,5.48,18.47,18.47,0,0,1,1.24,6.49,35,35,0,0,1-.5,6.46,65.62,65.62,0,0,1-3.52,12.27,125.63,125.63,0,0,1-5.14,11.6c-7.6,15.1-16.84,29.24-26.38,43.12Z"/><path class="cls-1" d="M599.48,376.27A114.7,114.7,0,0,1,631,368.33c2.71-.24,5.43-.4,8.16-.38a74.1,74.1,0,0,1,8.16.44,57.66,57.66,0,0,1,15.9,3.84,36.6,36.6,0,0,1,13.55,9.28,28.81,28.81,0,0,1,4.57,6.93,34.63,34.63,0,0,1,2.7,7.86,26.93,26.93,0,0,1,.5,8.35,23.29,23.29,0,0,1-2.35,8.11,21.42,21.42,0,0,1-5.34,6.59,32.28,32.28,0,0,1-7.13,4.45,59.27,59.27,0,0,1-7.75,2.92c-2.63.81-5.27,1.51-7.91,2.16-5.27,1.34-10.54,2.53-15.63,4.13a50.12,50.12,0,0,0-14.16,6.55,27.41,27.41,0,0,0-5.45,5.2,17.16,17.16,0,0,0-3.29,6.65,20,20,0,0,0-.24,7.44c.28,1.25.46,2.44.85,3.63.19.59.33,1.17.53,1.75l.64,1.71c.88,2.25,1.76,4.41,2.66,6.52s1.7,4.2,2.62,6.24a36.05,36.05,0,0,0,3.33,5.66,21.71,21.71,0,0,0,2,2.38c.35.36.67.75,1,1.1s.78.62,1.15,1c3,2.59,7.14,4.35,11.81,5.59a94.2,94.2,0,0,0,15,2.54c5.23.55,10.57.89,16,1.13s10.79.42,16.21.53,10.84.16,16.24.09,10.8-.31,16.19-.69c2.7-.18,5.4-.41,8.09-.65l8.1-.73A145.68,145.68,0,0,1,754,496a126.29,126.29,0,0,1,16.26,1.35c5.37.74,10.74,1.53,16.08,2.57a112.49,112.49,0,0,1,15.77,4,48.76,48.76,0,0,1,7.55,3.3,20.94,20.94,0,0,1,6.52,5.31,11.12,11.12,0,0,1,2.31,8.28,15.84,15.84,0,0,1-1,4.18c-.23.68-.57,1.3-.86,1.95a17,17,0,0,1-1,1.84,44.53,44.53,0,0,1-11.4,12.06,60.22,60.22,0,0,1-14.48,8c-.65.27-1.3.49-2,.72s-1.31.47-2,.68-1.32.45-2,.68-1.33.46-2,.64a26.31,26.31,0,0,1-8.36,1.29,33.8,33.8,0,0,1-16.19-4.1l.33-.94a68.54,68.54,0,0,0,15.73.92c2.57-.25,5.13-.43,7.74-.71a30.12,30.12,0,0,0,3.89-.67,32.93,32.93,0,0,0,3.77-1.18,58,58,0,0,0,14-7.37,42.38,42.38,0,0,0,11-11.18c.37-.54.65-1.12,1-1.68a8.4,8.4,0,0,0,.81-1.75,13.57,13.57,0,0,0,1-3.64,9.2,9.2,0,0,0-1.78-7,19,19,0,0,0-5.89-5,46.64,46.64,0,0,0-7.23-3.38c-10.12-3.66-20.88-5.32-31.58-6.8a125.83,125.83,0,0,0-16.12-1.14,144.88,144.88,0,0,0-16.12,1.14c-2.68.3-5.36.67-8,1l-8.07,1.12-16.17,2.14-16.2,2c-5.4.65-10.8,1.38-16.26,2s-10.94,1.09-16.54,1.36a88.61,88.61,0,0,1-17.3-.68,19.12,19.12,0,0,1-2.24-.4l-2.27-.47c-1.51-.34-3-.88-4.56-1.33-.76-.27-1.51-.62-2.27-.93s-1.51-.63-2.25-1l-2.2-1.23c-.37-.22-.74-.41-1.1-.65l-1-.74c-.7-.5-1.38-1-2.06-1.53s-1.25-1.15-1.88-1.73a39.62,39.62,0,0,1-3.41-3.68,48,48,0,0,1-5.17-8.15,31.51,31.51,0,0,1-3.52-18.33,44.57,44.57,0,0,1,2.07-9.13c.26-.73.54-1.45.81-2.16l.38-1.06.48-1c.31-.69.56-1.39.9-2.06s.68-1.33,1-2a45.08,45.08,0,0,1,4.71-7.41,31.38,31.38,0,0,1,6.44-5.79,53.56,53.56,0,0,1,15.39-6.61c5.3-1.49,10.66-2.52,15.91-3.69,2.63-.58,5.25-1.2,7.81-1.93a58,58,0,0,0,7.51-2.62,29.5,29.5,0,0,0,6.7-4,19.47,19.47,0,0,0,5-5.84,20.52,20.52,0,0,0,2.29-7.35,24.92,24.92,0,0,0-.35-7.8,32.63,32.63,0,0,0-2.46-7.52,27.07,27.07,0,0,0-4.24-6.64,35.26,35.26,0,0,0-12.91-9.1,56.59,56.59,0,0,0-15.52-4,69.82,69.82,0,0,0-8-.46c-2.69,0-5.39.12-8.07.36a108,108,0,0,0-31.25,7.89Z"/></svg>